<?xml version="1.0" encoding="UTF-8" standalone="no"?>
<!-- Created with Inkscape (http://www.inkscape.org/) -->

<svg
   xmlns:dc="http://purl.org/dc/elements/1.1/"
   xmlns:cc="http://creativecommons.org/ns#"
   xmlns:rdf="http://www.w3.org/1999/02/22-rdf-syntax-ns#"
   xmlns:svg="http://www.w3.org/2000/svg"
   xmlns="http://www.w3.org/2000/svg"
   xmlns:xlink="http://www.w3.org/1999/xlink"
   xmlns:sodipodi="http://sodipodi.sourceforge.net/DTD/sodipodi-0.dtd"
   xmlns:inkscape="http://www.inkscape.org/namespaces/inkscape"
   width="630.65063mm"
   height="108.54084mm"
   viewBox="0 0 630.65063 108.54084"
   version="1.1"
   id="svg5403"
   inkscape:version="0.92.3 (2405546, 2018-03-11)"
   sodipodi:docname="desktopscene.svg">
  <defs
     id="defs5397">
    <linearGradient
       inkscape:collect="always"
       id="linearGradient1807">
      <stop
         style="stop-color:#ef5b0f;stop-opacity:1"
         offset="0"
         id="stop1803" />
      <stop
         style="stop-color:#b53624;stop-opacity:1"
         offset="1"
         id="stop1805" />
    </linearGradient>
    <linearGradient
       inkscape:collect="always"
       id="linearGradient1695">
      <stop
         style="stop-color:#3d9f24;stop-opacity:1"
         offset="0"
         id="stop1691" />
      <stop
         style="stop-color:#d17524;stop-opacity:0.80000001"
         offset="1"
         id="stop1693" />
    </linearGradient>
    <linearGradient
       id="linearGradient1679"
       inkscape:collect="always">
      <stop
         id="stop1675"
         offset="0"
         style="stop-color:#3d8b24;stop-opacity:1" />
      <stop
         id="stop1677"
         offset="1"
         style="stop-color:#3d3a24;stop-opacity:1" />
    </linearGradient>
    <linearGradient
       inkscape:collect="always"
       id="linearGradient1625">
      <stop
         style="stop-color:#3d7624;stop-opacity:1"
         offset="0"
         id="stop1621" />
      <stop
         style="stop-color:#3d4224;stop-opacity:1"
         offset="1"
         id="stop1623" />
    </linearGradient>
    <linearGradient
       inkscape:collect="always"
       id="linearGradient6010">
      <stop
         style="stop-color:#44ca35;stop-opacity:1;"
         offset="0"
         id="stop6006" />
      <stop
         style="stop-color:#44ca35;stop-opacity:0;"
         offset="1"
         id="stop6008" />
    </linearGradient>
    <linearGradient
       inkscape:collect="always"
       id="linearGradient5992">
      <stop
         style="stop-color:#e2d739;stop-opacity:1;"
         offset="0"
         id="stop5988" />
      <stop
         style="stop-color:#e2d739;stop-opacity:0;"
         offset="1"
         id="stop5990" />
    </linearGradient>
    <linearGradient
       inkscape:collect="always"
       xlink:href="#linearGradient5992"
       id="linearGradient6018"
       x1="101.56242"
       y1="240.24976"
       x2="101.56242"
       y2="297.97998"
       gradientUnits="userSpaceOnUse" />
    <linearGradient
       inkscape:collect="always"
       xlink:href="#linearGradient5992"
       id="linearGradient6168"
       gradientUnits="userSpaceOnUse"
       x1="107.44235"
       y1="190.05122"
       x2="106.67559"
       y2="298.02811"
       gradientTransform="matrix(-1,0,0,1,420.3095,0)" />
    <linearGradient
       inkscape:collect="always"
       xlink:href="#linearGradient6010"
       id="linearGradient6176"
       gradientUnits="userSpaceOnUse"
       x1="100.49334"
       y1="208.47668"
       x2="101.16944"
       y2="302.02103"
       gradientTransform="matrix(-1,0,0,1,420.3095,0)" />
    <linearGradient
       inkscape:collect="always"
       xlink:href="#linearGradient5992"
       id="linearGradient6180"
       gradientUnits="userSpaceOnUse"
       x1="101.56242"
       y1="240.24976"
       x2="101.56242"
       y2="297.97998"
       gradientTransform="scale(-1,1)" />
    <linearGradient
       inkscape:collect="always"
       xlink:href="#linearGradient5992"
       id="linearGradient6184"
       gradientUnits="userSpaceOnUse"
       x1="101.56242"
       y1="240.24976"
       x2="101.56242"
       y2="297.97998"
       gradientTransform="matrix(-1.2025286,0,0,1,420.3095,0)" />
    <linearGradient
       inkscape:collect="always"
       xlink:href="#linearGradient1625"
       id="linearGradient1629"
       x1="-1.3295103"
       y1="226.50391"
       x2="6.2458925"
       y2="259.76581"
       gradientUnits="userSpaceOnUse" />
    <linearGradient
       inkscape:collect="always"
       xlink:href="#linearGradient1625"
       id="linearGradient1639"
       x1="39.241066"
       y1="250.03131"
       x2="41.338436"
       y2="264.39441"
       gradientUnits="userSpaceOnUse" />
    <linearGradient
       inkscape:collect="always"
       xlink:href="#linearGradient1625"
       id="linearGradient1649"
       x1="32.525845"
       y1="293.92584"
       x2="24.500227"
       y2="241.38716"
       gradientUnits="userSpaceOnUse" />
    <linearGradient
       inkscape:collect="always"
       xlink:href="#linearGradient1625"
       id="linearGradient1659"
       x1="141.74362"
       y1="221.38316"
       x2="205.52321"
       y2="249.35339"
       gradientUnits="userSpaceOnUse" />
    <linearGradient
       inkscape:collect="always"
       xlink:href="#linearGradient1679"
       id="linearGradient1673"
       gradientUnits="userSpaceOnUse"
       x1="102.80954"
       y1="253.61333"
       x2="102.80951"
       y2="305.77405" />
    <linearGradient
       inkscape:collect="always"
       xlink:href="#linearGradient1695"
       id="linearGradient1689"
       x1="172.11092"
       y1="267.27707"
       x2="174.58606"
       y2="307.14609"
       gradientUnits="userSpaceOnUse" />
    <linearGradient
       inkscape:collect="always"
       xlink:href="#linearGradient1695"
       id="linearGradient1703"
       x1="6.9100757"
       y1="268.53885"
       x2="9.5057144"
       y2="301.68027"
       gradientUnits="userSpaceOnUse" />
    <radialGradient
       inkscape:collect="always"
       xlink:href="#linearGradient1807"
       id="radialGradient1809"
       cx="301.15817"
       cy="61.596588"
       fx="301.15817"
       fy="61.596588"
       r="5.4710888"
       gradientTransform="matrix(0.42745172,3.4440278,-2.4978365,0.31001624,324.1354,-1001.6739)"
       gradientUnits="userSpaceOnUse" />
    <radialGradient
       inkscape:collect="always"
       xlink:href="#linearGradient1807"
       id="radialGradient1877"
       gradientUnits="userSpaceOnUse"
       gradientTransform="matrix(0.42745172,3.4440278,-2.4978365,0.31001624,324.1354,-1001.6739)"
       cx="301.15817"
       cy="61.596588"
       fx="301.15817"
       fy="61.596588"
       r="5.4710888" />
    <radialGradient
       inkscape:collect="always"
       xlink:href="#linearGradient1807"
       id="radialGradient1879"
       gradientUnits="userSpaceOnUse"
       gradientTransform="matrix(0.42745172,3.4440278,-2.4978365,0.31001624,324.1354,-1001.6739)"
       cx="301.15817"
       cy="61.596588"
       fx="301.15817"
       fy="61.596588"
       r="5.4710888" />
    <radialGradient
       inkscape:collect="always"
       xlink:href="#linearGradient1807"
       id="radialGradient1881"
       gradientUnits="userSpaceOnUse"
       gradientTransform="matrix(0.42745172,3.4440278,-2.4978365,0.31001624,324.1354,-1001.6739)"
       cx="301.15817"
       cy="61.596588"
       fx="301.15817"
       fy="61.596588"
       r="5.4710888" />
    <radialGradient
       inkscape:collect="always"
       xlink:href="#linearGradient1807"
       id="radialGradient1883"
       gradientUnits="userSpaceOnUse"
       gradientTransform="matrix(0.42745172,3.4440278,-2.4978365,0.31001624,324.1354,-1001.6739)"
       cx="301.15817"
       cy="61.596588"
       fx="301.15817"
       fy="61.596588"
       r="5.4710888" />
    <radialGradient
       inkscape:collect="always"
       xlink:href="#linearGradient1807"
       id="radialGradient1885"
       gradientUnits="userSpaceOnUse"
       gradientTransform="matrix(0.42745172,3.4440278,-2.4978365,0.31001624,324.1354,-1001.6739)"
       cx="301.15817"
       cy="61.596588"
       fx="301.15817"
       fy="61.596588"
       r="5.4710888" />
    <radialGradient
       inkscape:collect="always"
       xlink:href="#linearGradient1807"
       id="radialGradient1887"
       gradientUnits="userSpaceOnUse"
       gradientTransform="matrix(0.42745172,3.4440278,-2.4978365,0.31001624,324.1354,-1001.6739)"
       cx="301.15817"
       cy="61.596588"
       fx="301.15817"
       fy="61.596588"
       r="5.4710888" />
    <radialGradient
       inkscape:collect="always"
       xlink:href="#linearGradient1807"
       id="radialGradient1889"
       gradientUnits="userSpaceOnUse"
       gradientTransform="matrix(0.42745172,3.4440278,-2.4978365,0.31001624,324.1354,-1001.6739)"
       cx="301.15817"
       cy="61.596588"
       fx="301.15817"
       fy="61.596588"
       r="5.4710888" />
  </defs>
  <sodipodi:namedview
     id="base"
     pagecolor="#ffffff"
     bordercolor="#666666"
     borderopacity="1.0"
     inkscape:pageopacity="0.0"
     inkscape:pageshadow="2"
     inkscape:zoom="0.35"
     inkscape:cx="1107.6126"
     inkscape:cy="198.38783"
     inkscape:document-units="mm"
     inkscape:current-layer="svg5403"
     showgrid="false"
     inkscape:window-width="1600"
     inkscape:window-height="845"
     inkscape:window-x="0"
     inkscape:window-y="27"
     inkscape:window-maximized="1"
     inkscape:object-nodes="false"
     fit-margin-top="0"
     fit-margin-left="0"
     fit-margin-right="0"
     fit-margin-bottom="0" />
  <metadata
     id="metadata5400">
    <rdf:RDF>
      <cc:Work
         rdf:about="">
        <dc:format>image/svg+xml</dc:format>
        <dc:type
           rdf:resource="http://purl.org/dc/dcmitype/StillImage" />
        <dc:title />
      </cc:Work>
    </rdf:RDF>
  </metadata>
  <g
     inkscape:label="grass"
     inkscape:groupmode="layer"
     id="layer1"
     transform="translate(210.34112,-188.97321)"
     sodipodi:insensitive="true" />
  <g
     inkscape:groupmode="layer"
     id="layer5"
     inkscape:label="Layer 4"
     transform="translate(210.34112,-188.97321)"
     sodipodi:insensitive="true" />
  <g
     inkscape:groupmode="layer"
     id="layer4"
     inkscape:label="Layer 3"
     transform="translate(210.34112,-188.97321)"
     sodipodi:insensitive="true" />
  <g
     inkscape:groupmode="layer"
     id="layer3"
     inkscape:label="Layer 2"
     transform="translate(210.34112,-188.97321)"
     sodipodi:insensitive="true">
    <path
       style="opacity:1;fill:url(#linearGradient6018);fill-opacity:1;fill-rule:evenodd;stroke:none;stroke-width:1.32291663;stroke-linecap:round;stroke-linejoin:round;stroke-miterlimit:4;stroke-dasharray:none;stroke-dashoffset:0;stroke-opacity:1"
       d="m 0,244.08062 c 0,0 34.2105,-6.41447 56.126599,0 21.916101,6.41447 51.850291,9.6217 59.333831,7.48355 7.48355,-2.13816 20.31249,1.60362 28.86511,0.53454 8.55263,-1.06908 46.60513,3.107 46.60513,3.107 L -1.8249636e-8,255.20581 Z"
       id="path5971"
       inkscape:connector-curvature="0"
       sodipodi:nodetypes="csssccc" />
    <path
       id="rect6158"
       style="opacity:1;fill:url(#linearGradient1673);fill-opacity:1;fill-rule:evenodd;stroke:none;stroke-width:1.12301171;stroke-linecap:round;stroke-linejoin:round;stroke-miterlimit:4;stroke-dasharray:none;stroke-dashoffset:0;stroke-opacity:1"
       d="M -210.15475,255.20581 H 0 v 42.17216 h -210.15475 z m 210.15474998175037,0 H 210.15475 v 42.17216 H -1.824964e-8 Z M 210.15475,255.20581 h 210.15476 v 42.17216 H 210.15475 Z"
       inkscape:connector-curvature="0" />
    <path
       id="path6156"
       style="opacity:1;fill:url(#linearGradient1703);fill-opacity:1;fill-rule:evenodd;stroke:none;stroke-width:1.31876254;stroke-linecap:round;stroke-linejoin:round;stroke-miterlimit:4;stroke-dasharray:none;stroke-dashoffset:0;stroke-opacity:1"
       d="m -45.828689,261.28124 c -9.577958,0.18899 -83.384571,4.7247 -57.092141,8.12648 26.292433,3.4018 65.73108,0.75596 60.848202,4.91371 -4.88288,4.15774 -50.331228,3.02379 -27.043645,9.4494 23.287583,6.4256 68.89000536,5.91398 68.89000536,5.91398 l 0.13848909,-25.05517 z m 91.185831,1.5119 c 1.511905,0 83.154758,3.2128 56.696428,6.61458 -26.458332,3.4018 -66.145831,0.75596 -61.232143,4.91371 4.913691,4.15774 50.648811,3.02379 27.214287,9.4494 -23.434524,6.4256 -68.26198164,5.91398 -68.26198164,5.91398 l 0.13848909,-25.05517 z"
       inkscape:connector-curvature="0" />
    <path
       id="path6166"
       style="opacity:0.82300002;fill:url(#linearGradient6168);fill-opacity:1;fill-rule:evenodd;stroke:none;stroke-width:1.32291663;stroke-linecap:round;stroke-linejoin:round;stroke-miterlimit:4;stroke-dasharray:none;stroke-dashoffset:0;stroke-opacity:1"
       d="m 420.3095,201.05023 c 0,0 -41.69405,-26.99423 -79.64632,-0.26727 -37.95227,26.72695 -50.24667,4.27632 -73.76639,5.3454 -23.51971,1.06907 -22.98518,17.10524 -36.34865,19.77794 -13.36348,2.67269 -20.35547,0.40565 -20.35547,0.40565 l -0.0379,28.89386 H 420.3095 Z M 1.0556472,194.56765 c 0,0 -21.5830302,-8.79439 -61.8031572,8.48317 -42.6501,18.3214 -48.35986,13.10964 -74.52234,4.58944 -14.39734,-4.6887 -37.34828,17.8612 -50.71175,20.5339 -13.36348,2.67269 -24.09225,-2.26786 -24.09225,-2.26786 l -0.0809,29.29951 H 1.0497217e-8 Z m 0,0 c 0,0 26.3779008,2.86533 73.2452808,23.32056 35.259882,15.38915 55.592062,-12.82893 79.111782,-11.75985 23.51971,1.06907 26.05878,8.41898 38.35317,13.89801 12.44795,5.54746 18.4416,6.26413 18.4416,6.26413 l -0.0527,28.91531 H -1.8249636e-8 Z"
       inkscape:connector-curvature="0" />
    <path
       id="path6174"
       style="opacity:0.60799997;fill:url(#linearGradient6176);fill-opacity:1;fill-rule:evenodd;stroke:none;stroke-width:1.32291663;stroke-linecap:round;stroke-linejoin:round;stroke-miterlimit:4;stroke-dasharray:none;stroke-dashoffset:0;stroke-opacity:1"
       d="m 420.04223,217.0864 c 0,0 -11.49259,-16.30345 -36.61592,-6.14719 -25.12334,10.15623 -28.86511,28.8651 -48.64306,20.847 -19.77794,-8.01807 -35.81412,-1.6036 -48.64305,4.81087 -12.82894,6.41446 -33.14142,5.34539 -43.29766,2.13816 -10.15625,-3.20724 -28.75964,0.8018 -32.50142,1.33634 0.038,4.97577 -0.18637,15.13423 -0.18637,15.13423 H 420.3095 Z M 0.90539235,202.71352 c 0,0 -12.66525235,-1.93057 -37.78858235,8.22569 -25.12334,10.15623 -28.86511,28.8651 -48.64306,20.847 -19.77794,-8.01807 -35.81412,-1.6036 -48.64305,4.81087 -12.82894,6.41446 -33.14142,5.34539 -43.29766,2.13816 -10.15625,-3.20724 -29.13238,0.8018 -32.87416,1.33634 0.038,4.97577 0.18637,15.13423 0.18637,15.13423 H 1.9999987e-8 Z m 0,0 c 0,0 10.85446665,-1.93057 35.97780165,8.22569 25.123335,10.15623 28.86511,28.8651 48.643053,20.847 19.777943,-8.01807 35.814123,-1.6036 48.643053,4.81087 12.82894,6.41446 33.14142,5.34539 43.29766,2.13816 10.15625,-3.20724 32.21525,1.35695 32.87416,1.33634 0.0329,4.91671 -0.18637,15.13423 -0.18637,15.13423 H -1.8249693e-8 Z"
       inkscape:connector-curvature="0" />
    <path
       inkscape:connector-curvature="0"
       id="path6178"
       d="m 1.9999959e-8,244.08062 c 0,0 -34.210500019999962,-6.41447 -56.126600019999962,0 -21.9161,6.41447 -51.85029,9.6217 -59.33383,7.48355 -7.48355,-2.13816 -20.31249,1.60362 -28.86511,0.53454 -8.55263,-1.06908 -46.5049,3.20723 -46.5049,3.20723 L 1.9999959e-8,255.20581 Z"
       style="opacity:1;fill:url(#linearGradient6180);fill-opacity:1;fill-rule:evenodd;stroke:none;stroke-width:1.32291663;stroke-linecap:round;stroke-linejoin:round;stroke-miterlimit:4;stroke-dasharray:none;stroke-dashoffset:0;stroke-opacity:1" />
    <path
       inkscape:connector-curvature="0"
       id="path6182"
       d="m 420.3095,244.08062 c 0,0 -41.1391,-6.41447 -67.49384,0 -26.35474,6.41447 -62.35146,9.6217 -71.35063,7.48355 -8.99918,-2.13816 -24.42635,1.60362 -34.71112,0.53454 -10.28478,-1.06908 -55.82324,3.107 -55.82324,3.107 l 229.37883,1e-4 z"
       style="opacity:1;fill:url(#linearGradient6184);fill-opacity:1;fill-rule:evenodd;stroke:none;stroke-width:1.45070863;stroke-linecap:round;stroke-linejoin:round;stroke-miterlimit:4;stroke-dasharray:none;stroke-dashoffset:0;stroke-opacity:1"
       sodipodi:nodetypes="csssccc" />
    <path
       id="path13215"
       style="opacity:1;fill:url(#linearGradient1689);fill-opacity:1;fill-rule:evenodd;stroke:none;stroke-width:1.31940401;stroke-linecap:round;stroke-linejoin:round;stroke-miterlimit:4;stroke-dasharray:none;stroke-dashoffset:0;stroke-opacity:1"
       d="m 210.15475,255.20581 c 0,0 33.07555,2.45529 20.60235,6.215 -12.47323,3.75972 64.63392,1.87986 38.55355,9.3993 -26.08035,7.51943 -1.51188,11.65512 30.61607,10.90318 32.12799,-0.75194 78.24108,11.27914 41.95538,13.91095 -36.28573,2.6318 -131.72736,1.74449 -131.72736,1.74449 m 1e-5,-42.17292 c 0,0 -63.4094,-0.0344 -66.81551,7.18999 -2.06806,5.07349 19.74006,5.39641 22.38925,5.77664 2.6492,0.38024 -11.41402,9.05241 -36.39213,11.33381 -24.97813,2.28139 -91.586468,18.74272 -25.73505,17.98227 65.85142,-0.76047 106.55343,-0.10979 106.55343,-0.10979 z"
       inkscape:connector-curvature="0" />
  </g>
  <g
     inkscape:groupmode="layer"
     id="layer6"
     inkscape:label="trees"
     transform="translate(210.34112,-188.97321)"
     sodipodi:insensitive="true">
    <path
       style="opacity:1;fill:url(#linearGradient1659);fill-opacity:1;fill-rule:evenodd;stroke:none;stroke-width:1.32291663;stroke-linecap:round;stroke-linejoin:round;stroke-miterlimit:4;stroke-dasharray:none;stroke-dashoffset:0;stroke-opacity:1"
       d="m 169.31917,246.79266 c 0,0 -31.8638,10.59753 -29.74194,-7.91525 1.45151,-12.66414 21.84799,-5.72893 20.51165,-7.06527 -1.33635,-1.33637 -6.13334,-35.44746 19.88404,-33.48468 23.65728,1.78474 8.58966,34.29991 8.58966,34.29991 0,0 13.13791,-10.48578 19.66723,0.14869 6.06336,9.87554 -8.10749,18.10615 -19.71309,16.79165 -7.62814,-0.864 -19.19755,-2.77505 -19.19755,-2.77505 z"
       id="path6032"
       inkscape:connector-curvature="0"
       sodipodi:nodetypes="cssscssc" />
    <path
       style="opacity:1;fill:#3d3124;fill-opacity:1;fill-rule:evenodd;stroke:none;stroke-width:1.32291663;stroke-linecap:round;stroke-linejoin:round;stroke-miterlimit:4;stroke-dasharray:none;stroke-dashoffset:0;stroke-opacity:1"
       d="m 168.62528,262.0604 c -0.18898,-0.56695 1.13393,-35.34077 1.13393,-35.34077 0,0 0.85045,35.52976 0.75595,35.71875 -0.0945,0.18898 -1.88988,-0.37798 -1.88988,-0.37798 z"
       id="path6038"
       inkscape:connector-curvature="0" />
    <path
       style="opacity:1;fill:#3d3124;fill-opacity:1;fill-rule:evenodd;stroke:none;stroke-width:1.32291663;stroke-linecap:round;stroke-linejoin:round;stroke-miterlimit:4;stroke-dasharray:none;stroke-dashoffset:0;stroke-opacity:1"
       d="m 170.04269,241.3662 c 0.47247,-0.0945 17.4814,-4.81921 17.4814,-4.81921 l -17.67038,6.23662 -17.95387,-3.68527 z"
       id="path6040"
       inkscape:connector-curvature="0" />
    <path
       style="opacity:1;fill:url(#linearGradient1639);fill-opacity:1;fill-rule:evenodd;stroke:none;stroke-width:1.32291663;stroke-linecap:round;stroke-linejoin:round;stroke-miterlimit:4;stroke-dasharray:none;stroke-dashoffset:0;stroke-opacity:1"
       d="m 40.523156,242.99985 c 0,0 -8.55263,24.32153 -6.1472,25.92515 2.40541,1.60361 11.75986,1.06907 11.49258,-0.26726 -0.26726,-1.33636 -5.34538,-25.65789 -5.34538,-25.65789 z"
       id="path6026"
       inkscape:connector-curvature="0" />
    <path
       inkscape:connector-curvature="0"
       id="path6186"
       d="m 2.914015,209.13383 c 0,0 -23.300115,58.95641 -21.534976,61.0746 1.765178,2.1182 38.127515,2.1182 39.186627,0.35306 1.059073,-1.76518 -17.651651,-61.42766 -17.651651,-61.42766 z"
       style="opacity:1;fill:url(#linearGradient1629);fill-opacity:1;fill-rule:evenodd;stroke:none;stroke-width:1.74742126;stroke-linecap:round;stroke-linejoin:round;stroke-miterlimit:4;stroke-dasharray:none;stroke-dashoffset:0;stroke-opacity:1" />
    <path
       style="opacity:1;fill:url(#linearGradient1649);fill-opacity:1;fill-rule:evenodd;stroke:none;stroke-width:1.32291663;stroke-linecap:round;stroke-linejoin:round;stroke-miterlimit:4;stroke-dasharray:none;stroke-dashoffset:0;stroke-opacity:1"
       d="m 26.222978,234.65807 c 0,0 -17.6397699,44.63401 -16.3034399,46.23762 1.3363599,1.60362 28.8651199,1.60362 29.6669399,0.26729 0.80179,-1.33636 -13.3635,-46.50491 -13.3635,-46.50491 z"
       id="path6024"
       inkscape:connector-curvature="0" />
  </g>
  <g
     inkscape:groupmode="layer"
     id="layer8"
     inkscape:label="bears" />
  <g
     id="g1837">
    <g
       style="fill:url(#radialGradient1809);fill-opacity:1"
       id="g1801">
      <path
         style="fill:url(#radialGradient1809);fill-opacity:1;stroke:none;stroke-width:0.19745776;stroke-linecap:round;stroke-linejoin:round;stroke-miterlimit:4;stroke-dasharray:none;stroke-opacity:1"
         d="m 296.04552,69.29363 c 0,0 -0.70831,2.839862 -0.5474,3.667614 0.14206,0.730872 0.28901,1.303323 0.35111,1.643917 0.1609,0.88249 0.0868,1.531021 0.30577,2.571091 0.21896,1.04007 -0.7193,1.393578 -0.62951,1.779063 0.13715,0.588866 0.62951,1.012698 1.8338,0.793733 1.20429,-0.218957 0.71162,-1.204286 0.71162,-1.642208 0,-0.437925 1.42325,-3.503388 2.18962,-3.831831 0.76637,-0.328439 1.23585,0.12922 1.75169,0.711631 0.84848,0.957957 1.2043,0.702177 1.2043,2.134875 0,1.368509 -0.54741,1.66958 0.71162,1.66958 1.14954,0 2.13371,-0.09142 1.39588,-1.04007 -0.76637,-0.985329 0.24633,-3.804455 0.46529,-4.954 0.21896,-1.149556 -0.59239,-3.588497 -0.97558,-4.464344 l -2.43917,-6.972452 -4.23846,0.387073 z"
         id="path4337-9"
         inkscape:connector-curvature="0"
         sodipodi:nodetypes="cssssssssssssc" />
      <path
         style="fill:url(#radialGradient1809);fill-opacity:1;stroke:#000006;stroke-width:0.17950705;stroke-linecap:round;stroke-linejoin:round;stroke-miterlimit:4;stroke-dasharray:none;stroke-opacity:1"
         d="m 299.31103,64.965024 c 0,0 0.0498,0.497643 -0.29859,0.845993 -0.34835,0.348344 -1.19434,1.791502 -1.2441,1.990559 -0.0498,0.199057 0.54741,1.094804 0.94552,1.542683 0.39811,0.447875 -1.04505,1.642215 -1.79151,1.293865 -0.74645,-0.34835 -1.2441,-2.438437 -1.19433,-2.936077 0.0498,-0.497639 -0.84599,-2.687255 -0.74646,-4.329467 0.0995,-1.642215 1.7915,-4.926642 1.84127,-5.324753 0.0498,-0.398107 0.0498,-3.931359 1.44315,-5.075928 1.39339,-1.144568 3.97146,-0.288923 3.98112,-0.298586 0.024,0.01861 1.2441,0.597172 1.29386,3.732299 0.0498,3.135138 -0.0498,2.488205 0.54741,3.533252 0.59717,1.04504 1.59245,3.931349 1.04504,6.519082 -0.5474,2.587731 -0.64692,3.782063 -1.69197,3.383949 -1.04505,-0.398107 -1.44316,-1.443151 -0.84599,-2.040319 0.59717,-0.597168 0.84599,-1.293865 0.6967,-1.542683 -0.1493,-0.248825 -0.99528,-0.845986 -1.04505,-1.094812 -0.0498,-0.248821 -0.14929,-0.845989 -0.14929,-0.845989"
         id="path4339-2"
         inkscape:connector-curvature="0"
         sodipodi:nodetypes="ccsccsscccsccccccc" />
      <path
         style="fill:url(#radialGradient1809);fill-opacity:1;stroke:#000006;stroke-width:0.17584729;stroke-linecap:butt;stroke-linejoin:round;stroke-miterlimit:4;stroke-dasharray:none;stroke-opacity:1"
         d="m 302.14195,52.73865 c 0,0 0.31708,-0.699579 0.95133,-0.211702 0.63425,0.487885 -0.14425,1.164558 -0.14425,1.164558"
         id="path4341-8"
         inkscape:connector-curvature="0"
         sodipodi:nodetypes="csc" />
      <path
         style="fill:url(#radialGradient1809);fill-opacity:1;stroke:#000006;stroke-width:0.17584729;stroke-linecap:butt;stroke-linejoin:round;stroke-miterlimit:4;stroke-dasharray:none;stroke-opacity:1"
         d="m 298.52336,52.895429 c 0,0 -0.4323,-0.730974 -0.96897,-0.291883 -0.53667,0.439095 -0.40558,1.317285 0.0335,1.512436"
         id="path4343-3"
         inkscape:connector-curvature="0"
         sodipodi:nodetypes="ccc" />
      <path
         style="fill:url(#radialGradient1809);fill-opacity:1;stroke:#000006;stroke-width:0.1759873;stroke-linecap:round;stroke-linejoin:round;stroke-miterlimit:4;stroke-dasharray:none;stroke-opacity:1"
         d="m 298.40949,63.294781 c -0.0173,-0.103495 -0.31049,-3.605089 1.65593,-3.622338 1.96642,-0.01726 2.15616,2.432142 2.12166,3.277355"
         id="path4345-0"
         inkscape:connector-curvature="0" />
      <path
         style="fill:url(#radialGradient1809);fill-opacity:1;stroke:#000006;stroke-width:0.1759873;stroke-linecap:round;stroke-linejoin:round;stroke-miterlimit:4;stroke-dasharray:none;stroke-opacity:1"
         d="m 299.4617,55.239385 c 0,0 -0.1725,-1.586932 1.06945,-1.65593 1.24195,-0.06899 1.22469,1.31094 1.22469,1.690424"
         id="path4351-8"
         inkscape:connector-curvature="0" />
    </g>
    <path
       inkscape:connector-curvature="0"
       id="path4347-1"
       d="m 300.11717,53.652453 c 0,0 -0.22424,-0.362234 -0.51748,-0.155241 -0.29323,0.206991 0.01,0.69758 0.01,0.69758"
       style="fill:#000000;fill-opacity:1;stroke:#00000b;stroke-width:0.1759873;stroke-linecap:round;stroke-linejoin:round;stroke-miterlimit:4;stroke-dasharray:none;stroke-opacity:1"
       sodipodi:nodetypes="ccc" />
    <path
       inkscape:connector-curvature="0"
       id="path4349-7"
       d="m 301.18662,53.7387 c 0,0 0.27599,-0.275988 0.48298,-0.103499 0.20699,0.17249 0.0345,0.482982 -0.0862,0.569229"
       style="fill:#000000;fill-opacity:1;stroke:#00000b;stroke-width:0.1759873;stroke-linecap:round;stroke-linejoin:round;stroke-miterlimit:4;stroke-dasharray:none;stroke-opacity:1" />
    <path
       sodipodi:nodetypes="ccccccc"
       inkscape:connector-curvature="0"
       id="path4353-9"
       d="m 300.77264,55.360129 -0.22424,-0.379483 -0.27599,-0.05175 c 0,0 -0.0517,-0.534728 0.44848,-0.551976 0.50023,-0.01726 0.50023,0.396732 0.50023,0.534728 7.1e-4,0.151543 0.0141,0.126659 -0.24149,0.120747 z"
       style="fill:#000000;fill-opacity:1;stroke:#00000b;stroke-width:0.1759873;stroke-linecap:round;stroke-linejoin:round;stroke-miterlimit:4;stroke-dasharray:none;stroke-opacity:1" />
    <path
       sodipodi:nodetypes="ccccccc"
       inkscape:connector-curvature="0"
       id="path4355-1"
       d="m 300.06542,55.549867 c 0,0 0.36224,-0.20699 0.70722,-0.189738 0.34499,0.01726 0.53473,0.189738 0.53473,0.189738 0,0 -0.55198,-0.103495 -0.58648,0.138 l -0.0173,0.103491 c 0,0 0.0862,-0.327737 -0.63822,-0.241491 z"
       style="fill:#000000;fill-opacity:1;stroke:#00000b;stroke-width:0.17584729;stroke-linecap:round;stroke-linejoin:round;stroke-miterlimit:4;stroke-dasharray:none;stroke-opacity:1" />
    <path
       inkscape:connector-curvature="0"
       id="path13237"
       d="m 296.04552,69.293628 0.47646,-0.985944"
       style="opacity:1;fill:#ed6524;fill-opacity:1;fill-rule:evenodd;stroke:none;stroke-width:0;stroke-linecap:butt;stroke-linejoin:round;stroke-miterlimit:4;stroke-dasharray:none;stroke-dashoffset:0;stroke-opacity:1" />
  </g>
  <g
     id="g1875"
     transform="matrix(0.85030198,0.04319306,-0.04319306,0.85030198,32.608398,-7.1510611)">
    <g
       id="g1863"
       style="fill:url(#radialGradient1889);fill-opacity:1">
      <path
         sodipodi:nodetypes="cssssssssssssc"
         inkscape:connector-curvature="0"
         id="path1851"
         d="m 296.04552,69.29363 c 0,0 -0.70831,2.839862 -0.5474,3.667614 0.14206,0.730872 0.28901,1.303323 0.35111,1.643917 0.1609,0.88249 0.0868,1.531021 0.30577,2.571091 0.21896,1.04007 -0.7193,1.393578 -0.62951,1.779063 0.13715,0.588866 0.62951,1.012698 1.8338,0.793733 1.20429,-0.218957 0.71162,-1.204286 0.71162,-1.642208 0,-0.437925 1.42325,-3.503388 2.18962,-3.831831 0.76637,-0.328439 1.23585,0.12922 1.75169,0.711631 0.84848,0.957957 1.2043,0.702177 1.2043,2.134875 0,1.368509 -0.54741,1.66958 0.71162,1.66958 1.14954,0 2.13371,-0.09142 1.39588,-1.04007 -0.76637,-0.985329 0.24633,-3.804455 0.46529,-4.954 0.21896,-1.149556 -0.59239,-3.588497 -0.97558,-4.464344 l -2.43917,-6.972452 -4.23846,0.387073 z"
         style="fill:url(#radialGradient1877);fill-opacity:1;stroke:none;stroke-width:0.19745776;stroke-linecap:round;stroke-linejoin:round;stroke-miterlimit:4;stroke-dasharray:none;stroke-opacity:1" />
      <path
         sodipodi:nodetypes="ccsccsscccsccccccc"
         inkscape:connector-curvature="0"
         id="path1853"
         d="m 299.31103,64.965024 c 0,0 0.0498,0.497643 -0.29859,0.845993 -0.34835,0.348344 -1.19434,1.791502 -1.2441,1.990559 -0.0498,0.199057 0.54741,1.094804 0.94552,1.542683 0.39811,0.447875 -1.04505,1.642215 -1.79151,1.293865 -0.74645,-0.34835 -1.2441,-2.438437 -1.19433,-2.936077 0.0498,-0.497639 -0.84599,-2.687255 -0.74646,-4.329467 0.0995,-1.642215 1.7915,-4.926642 1.84127,-5.324753 0.0498,-0.398107 0.0498,-3.931359 1.44315,-5.075928 1.39339,-1.144568 3.97146,-0.288923 3.98112,-0.298586 0.024,0.01861 1.2441,0.597172 1.29386,3.732299 0.0498,3.135138 -0.0498,2.488205 0.54741,3.533252 0.59717,1.04504 1.59245,3.931349 1.04504,6.519082 -0.5474,2.587731 -0.64692,3.782063 -1.69197,3.383949 -1.04505,-0.398107 -1.44316,-1.443151 -0.84599,-2.040319 0.59717,-0.597168 0.84599,-1.293865 0.6967,-1.542683 -0.1493,-0.248825 -0.99528,-0.845986 -1.04505,-1.094812 -0.0498,-0.248821 -0.14929,-0.845989 -0.14929,-0.845989"
         style="fill:url(#radialGradient1879);fill-opacity:1;stroke:#000006;stroke-width:0.17950705;stroke-linecap:round;stroke-linejoin:round;stroke-miterlimit:4;stroke-dasharray:none;stroke-opacity:1" />
      <path
         sodipodi:nodetypes="csc"
         inkscape:connector-curvature="0"
         id="path1855"
         d="m 302.14195,52.73865 c 0,0 0.31708,-0.699579 0.95133,-0.211702 0.63425,0.487885 -0.14425,1.164558 -0.14425,1.164558"
         style="fill:url(#radialGradient1881);fill-opacity:1;stroke:#000006;stroke-width:0.17584729;stroke-linecap:butt;stroke-linejoin:round;stroke-miterlimit:4;stroke-dasharray:none;stroke-opacity:1" />
      <path
         sodipodi:nodetypes="ccc"
         inkscape:connector-curvature="0"
         id="path1857"
         d="m 298.52336,52.895429 c 0,0 -0.4323,-0.730974 -0.96897,-0.291883 -0.53667,0.439095 -0.40558,1.317285 0.0335,1.512436"
         style="fill:url(#radialGradient1883);fill-opacity:1;stroke:#000006;stroke-width:0.17584729;stroke-linecap:butt;stroke-linejoin:round;stroke-miterlimit:4;stroke-dasharray:none;stroke-opacity:1" />
      <path
         inkscape:connector-curvature="0"
         id="path1859"
         d="m 298.40949,63.294781 c -0.0173,-0.103495 -0.31049,-3.605089 1.65593,-3.622338 1.96642,-0.01726 2.15616,2.432142 2.12166,3.277355"
         style="fill:url(#radialGradient1885);fill-opacity:1;stroke:#000006;stroke-width:0.1759873;stroke-linecap:round;stroke-linejoin:round;stroke-miterlimit:4;stroke-dasharray:none;stroke-opacity:1" />
      <path
         inkscape:connector-curvature="0"
         id="path1861"
         d="m 299.4617,55.239385 c 0,0 -0.1725,-1.586932 1.06945,-1.65593 1.24195,-0.06899 1.22469,1.31094 1.22469,1.690424"
         style="fill:url(#radialGradient1887);fill-opacity:1;stroke:#000006;stroke-width:0.1759873;stroke-linecap:round;stroke-linejoin:round;stroke-miterlimit:4;stroke-dasharray:none;stroke-opacity:1" />
    </g>
    <path
       sodipodi:nodetypes="ccc"
       style="fill:#000000;fill-opacity:1;stroke:#00000b;stroke-width:0.1759873;stroke-linecap:round;stroke-linejoin:round;stroke-miterlimit:4;stroke-dasharray:none;stroke-opacity:1"
       d="m 300.11717,53.652453 c 0,0 -0.22424,-0.362234 -0.51748,-0.155241 -0.29323,0.206991 0.01,0.69758 0.01,0.69758"
       id="path1865"
       inkscape:connector-curvature="0" />
    <path
       style="fill:#000000;fill-opacity:1;stroke:#00000b;stroke-width:0.1759873;stroke-linecap:round;stroke-linejoin:round;stroke-miterlimit:4;stroke-dasharray:none;stroke-opacity:1"
       d="m 301.18662,53.7387 c 0,0 0.27599,-0.275988 0.48298,-0.103499 0.20699,0.17249 0.0345,0.482982 -0.0862,0.569229"
       id="path1867"
       inkscape:connector-curvature="0" />
    <path
       style="fill:#000000;fill-opacity:1;stroke:#00000b;stroke-width:0.1759873;stroke-linecap:round;stroke-linejoin:round;stroke-miterlimit:4;stroke-dasharray:none;stroke-opacity:1"
       d="m 300.77264,55.360129 -0.22424,-0.379483 -0.27599,-0.05175 c 0,0 -0.0517,-0.534728 0.44848,-0.551976 0.50023,-0.01726 0.50023,0.396732 0.50023,0.534728 7.1e-4,0.151543 0.0141,0.126659 -0.24149,0.120747 z"
       id="path1869"
       inkscape:connector-curvature="0"
       sodipodi:nodetypes="ccccccc" />
    <path
       style="fill:#000000;fill-opacity:1;stroke:#00000b;stroke-width:0.17584729;stroke-linecap:round;stroke-linejoin:round;stroke-miterlimit:4;stroke-dasharray:none;stroke-opacity:1"
       d="m 300.06542,55.549867 c 0,0 0.36224,-0.20699 0.70722,-0.189738 0.34499,0.01726 0.53473,0.189738 0.53473,0.189738 0,0 -0.55198,-0.103495 -0.58648,0.138 l -0.0173,0.103491 c 0,0 0.0862,-0.327737 -0.63822,-0.241491 z"
       id="path1871"
       inkscape:connector-curvature="0"
       sodipodi:nodetypes="ccccccc" />
    <path
       style="opacity:1;fill:#ed6524;fill-opacity:1;fill-rule:evenodd;stroke:none;stroke-width:0;stroke-linecap:butt;stroke-linejoin:round;stroke-miterlimit:4;stroke-dasharray:none;stroke-dashoffset:0;stroke-opacity:1"
       d="m 296.04552,69.293628 0.47646,-0.985944"
       id="path1873"
       inkscape:connector-curvature="0" />
  </g>
</svg>
