<?xml version="1.0" encoding="UTF-8" standalone="no"?>
<!-- Created with Inkscape (http://www.inkscape.org/) -->

<svg
   xmlns:dc="http://purl.org/dc/elements/1.1/"
   xmlns:cc="http://creativecommons.org/ns#"
   xmlns:rdf="http://www.w3.org/1999/02/22-rdf-syntax-ns#"
   xmlns:svg="http://www.w3.org/2000/svg"
   xmlns="http://www.w3.org/2000/svg"
   xmlns:sodipodi="http://sodipodi.sourceforge.net/DTD/sodipodi-0.dtd"
   xmlns:inkscape="http://www.inkscape.org/namespaces/inkscape"
   inkscape:version="0.92.3 (2405546, 2018-03-11)"
   sodipodi:docname="4pm.svg"
   id="svg8"
   version="1.1"
   viewBox="0 0 361.42083 203.20001"
   height="768"
   width="1366"
   enable-background="new">
  <sodipodi:namedview
     inkscape:snap-to-guides="true"
     inkscape:snap-grids="true"
     inkscape:window-maximized="1"
     inkscape:window-y="27"
     inkscape:window-x="0"
     inkscape:window-height="845"
     inkscape:window-width="1600"
     units="px"
     showgrid="false"
     inkscape:current-layer="layer9"
     inkscape:document-units="mm"
     inkscape:cy="376.08769"
     inkscape:cx="611.474"
     inkscape:zoom="0.7"
     inkscape:pageshadow="2"
     inkscape:pageopacity="0.0"
     borderopacity="1.0"
     bordercolor="#666666"
     pagecolor="#ffffff"
     id="base"
     inkscape:object-nodes="true"
     showguides="true"
     inkscape:guide-bbox="true"
     inkscape:object-paths="false">
    <sodipodi:guide
       id="guide2950"
       position="0.0,0"
       orientation="203.2,0"
       inkscape:locked="false" />
    <sodipodi:guide
       id="guide2952"
       position="45.1776,0"
       orientation="203.2,0"
       inkscape:locked="false" />
    <sodipodi:guide
       id="guide2954"
       position="90.3552,0"
       orientation="203.2,0"
       inkscape:locked="false" />
    <sodipodi:guide
       id="guide2956"
       position="135.5328,0"
       orientation="203.2,0"
       inkscape:locked="false" />
    <sodipodi:guide
       id="guide2958"
       position="180.7104,0"
       orientation="203.2,0"
       inkscape:locked="false" />
    <sodipodi:guide
       id="guide2960"
       position="225.888,0"
       orientation="203.2,0"
       inkscape:locked="false" />
    <sodipodi:guide
       id="guide2962"
       position="271.0656,0"
       orientation="203.2,0"
       inkscape:locked="false" />
    <sodipodi:guide
       id="guide2964"
       position="316.2432,0"
       orientation="203.2,0"
       inkscape:locked="false" />
    <sodipodi:guide
       id="guide2966"
       position="361.4208,0"
       orientation="203.2,0"
       inkscape:locked="false" />
    <sodipodi:guide
       id="guide2968"
       position="0,0.0"
       orientation="0,361.4208"
       inkscape:locked="false" />
    <sodipodi:guide
       id="guide2970"
       position="252.4881,50.64881"
       orientation="0,361.4208"
       inkscape:locked="false" />
    <sodipodi:guide
       id="guide2974"
       position="0,152.4"
       orientation="0,361.4208"
       inkscape:locked="false" />
    <sodipodi:guide
       id="guide2976"
       position="219.42829,204.72846"
       orientation="0.00010456881,0.99999999"
       inkscape:locked="false" />
    <sodipodi:guide
       position="252.4881,242.66072"
       orientation="0,1"
       id="guide4479"
       inkscape:locked="false" />
    <sodipodi:guide
       position="201.78849,163.03442"
       orientation="0,1"
       id="guide8421"
       inkscape:locked="false" />
    <sodipodi:guide
       position="144.86008,94.880686"
       orientation="1,0"
       id="guide15349"
       inkscape:locked="false" />
    <sodipodi:guide
       position="216.75558,96.484304"
       orientation="1,0"
       id="guide15351"
       inkscape:locked="false" />
    <sodipodi:guide
       position="167.34896,141.64658"
       orientation="0,1"
       id="guide15363"
       inkscape:locked="false" />
    <sodipodi:guide
       position="326.9494,88.824409"
       orientation="0,1"
       id="guide16178"
       inkscape:locked="false" />
    <sodipodi:guide
       position="203.35119,70.681551"
       orientation="0,1"
       id="guide16180"
       inkscape:locked="false" />
  </sodipodi:namedview>
  <defs
     id="defs2" />
  <metadata
     id="metadata5">
    <rdf:RDF>
      <cc:Work
         rdf:about="">
        <dc:format>image/svg+xml</dc:format>
        <dc:type
           rdf:resource="http://purl.org/dc/dcmitype/StillImage" />
        <dc:title></dc:title>
      </cc:Work>
    </rdf:RDF>
  </metadata>
  <g
     transform="translate(0,-93.799983)"
     id="layer1"
     inkscape:groupmode="layer"
     inkscape:label="desktop-bg"
     style="display:inline">
    <rect
       y="93.535408"
       x="0.037809245"
       height="203.72916"
       width="361.34521"
       id="rect840"
       style="opacity:1;fill:#ff783f;fill-opacity:1;fill-rule:evenodd;stroke:none;stroke-width:0.79374999;stroke-linecap:round;stroke-linejoin:round;stroke-miterlimit:4;stroke-dasharray:none;stroke-dashoffset:0;stroke-opacity:1" />
  </g>
  <g
     inkscape:label="tablet-bg"
     id="layer3"
     inkscape:groupmode="layer"
     style="display:inline"
     sodipodi:insensitive="true">
    <rect
       style="display:inline;opacity:1;fill:#e1da28;fill-opacity:1;fill-rule:evenodd;stroke:none;stroke-width:1.24694991;stroke-linecap:round;stroke-linejoin:round;stroke-miterlimit:4;stroke-dasharray:none;stroke-dashoffset:0;stroke-opacity:1"
       id="rect845"
       width="203.2"
       height="270.93332"
       x="79.11042"
       y="0"
       ry="0" />
  </g>
  <g
     inkscape:label="mobile-bg"
     id="layer2"
     inkscape:groupmode="layer"
     style="display:inline"
     sodipodi:insensitive="true">
    <rect
       ry="0"
       y="0"
       x="126.20625"
       height="193.675"
       width="109.00833"
       id="rect843"
       style="display:inline;opacity:1;fill:#6fc1ff;fill-opacity:1;fill-rule:evenodd;stroke:none;stroke-width:0.77218711;stroke-linecap:round;stroke-linejoin:round;stroke-miterlimit:4;stroke-dasharray:none;stroke-dashoffset:0;stroke-opacity:1" />
  </g>
  <g
     inkscape:label="side-design"
     id="layer4"
     inkscape:groupmode="layer"
     style="display:inline"
     sodipodi:insensitive="true">
    <path
       style="opacity:1;fill:#ffd42a;fill-opacity:0.8;fill-rule:evenodd;stroke:none;stroke-width:3;stroke-linecap:round;stroke-linejoin:round;stroke-miterlimit:4;stroke-dasharray:none;stroke-dashoffset:0;stroke-opacity:1"
       d="M 0.08398437,-0.80273438 A 150,150 0 0 0 0,0.85742188 150,150 0 0 0 150,150.85742 150,150 0 0 0 300,0.85742188 150,150 0 0 0 299.9414,-0.80273438 Z"
       id="path7792"
       transform="scale(0.26458333)"
       inkscape:connector-curvature="0" />
    <path
       style="opacity:1;fill:#ffd42a;fill-opacity:0.8;fill-rule:evenodd;stroke:none;stroke-width:0.59999996;stroke-linecap:round;stroke-linejoin:round;stroke-miterlimit:4;stroke-dasharray:none;stroke-dashoffset:0;stroke-opacity:1"
       d="m 150,738 a 30,30 0 0 0 -30,30 h 60 a 30,30 0 0 0 -30,-30 z"
       transform="scale(0.26458333)"
       id="path3098"
       inkscape:connector-curvature="0" />
    <path
       id="path4265"
       d="m 71.4375,82.5458 a 31.75,31.75 0 0 1 -31.75,31.75 31.75,31.75 0 0 1 -31.75,-31.75 31.75,31.75 0 0 1 31.75,-31.75 31.75,31.75 0 0 1 31.75,31.75 z"
       style="opacity:1;fill:#ffd42a;fill-opacity:0.8;fill-rule:evenodd;stroke:none;stroke-width:0.63499999;stroke-linecap:round;stroke-linejoin:round;stroke-miterlimit:4;stroke-dasharray:none;stroke-dashoffset:0;stroke-opacity:1"
       inkscape:connector-curvature="0" />
    <path
       id="path4267"
       d="M 59.53125,152.52317 A 19.84375,19.84375 0 0 1 39.6875,172.36692 19.84375,19.84375 0 0 1 19.84375,152.52317 19.84375,19.84375 0 0 1 39.6875,132.67942 19.84375,19.84375 0 0 1 59.53125,152.52317 Z"
       style="opacity:1;fill:#ffd42a;fill-opacity:0.8;fill-rule:evenodd;stroke:none;stroke-width:0.39687499;stroke-linecap:round;stroke-linejoin:round;stroke-miterlimit:4;stroke-dasharray:none;stroke-dashoffset:0;stroke-opacity:1"
       inkscape:connector-curvature="0" />
    <path
       style="opacity:1;fill:#cccccc;fill-opacity:0.8;fill-rule:evenodd;stroke:none;stroke-width:0.99999994;stroke-linecap:round;stroke-linejoin:round;stroke-miterlimit:4;stroke-dasharray:none;stroke-dashoffset:0;stroke-opacity:1"
       d="m 1366.6934,-0.69140625 h -299.9336 a 150,150 0 0 0 -0.039,0.76757812 150,150 0 0 0 150,149.99999813 150,150 0 0 0 150,-149.99999813 150,150 0 0 0 -0.027,-0.76757812 z"
       id="path7787"
       transform="scale(0.26458333)"
       inkscape:connector-curvature="0" />
    <path
       style="opacity:1;fill:#cccccc;fill-opacity:0.8;fill-rule:evenodd;stroke:none;stroke-width:0.99999994;stroke-linecap:round;stroke-linejoin:round;stroke-miterlimit:4;stroke-dasharray:none;stroke-dashoffset:0;stroke-opacity:1"
       d="m 1216.7207,-149.92383 a 150,150 0 0 0 -13.957,0.78125 h 29.1504 a 150,150 0 0 0 -15.1934,-0.78125 z"
       id="path4275"
       transform="scale(0.26458333)"
       inkscape:connector-curvature="0" />
    <path
       style="opacity:1;fill:#cccccc;fill-opacity:0.8;fill-rule:evenodd;stroke:none;stroke-width:0.59999996;stroke-linecap:round;stroke-linejoin:round;stroke-miterlimit:4;stroke-dasharray:none;stroke-dashoffset:0;stroke-opacity:1"
       d="m 1216.7207,737.21875 a 30,30 0 0 0 -30,30 30,30 0 0 0 0.027,0.78125 h 59.9336 a 30,30 0 0 0 0.039,-0.78125 30,30 0 0 0 -30,-30 z"
       transform="scale(0.26458333)"
       id="path4277"
       inkscape:connector-curvature="0" />
    <path
       inkscape:connector-curvature="0"
       style="opacity:1;fill:#cccccc;fill-opacity:0.8;fill-rule:evenodd;stroke:none;stroke-width:0.63499999;stroke-linecap:round;stroke-linejoin:round;stroke-miterlimit:4;stroke-dasharray:none;stroke-dashoffset:0;stroke-opacity:1"
       d="m 353.67412,82.33897 a 31.75,31.75 0 0 1 -31.75,31.75 31.75,31.75 0 0 1 -31.75,-31.75 31.75,31.75 0 0 1 31.75,-31.75 31.75,31.75 0 0 1 31.75,31.75 z"
       id="path4279" />
    <path
       inkscape:connector-curvature="0"
       style="opacity:1;fill:#cccccc;fill-opacity:0.8;fill-rule:evenodd;stroke:none;stroke-width:0.39687499;stroke-linecap:round;stroke-linejoin:round;stroke-miterlimit:4;stroke-dasharray:none;stroke-dashoffset:0;stroke-opacity:1"
       d="m 341.76787,152.31634 a 19.84375,19.84375 0 0 1 -19.84375,19.84375 19.84375,19.84375 0 0 1 -19.84375,-19.84375 19.84375,19.84375 0 0 1 19.84375,-19.84375 19.84375,19.84375 0 0 1 19.84375,19.84375 z"
       id="path4281" />
  </g>
  <g
     inkscape:groupmode="layer"
     id="layer5"
     inkscape:label="bears"
     style="display:inline"
     sodipodi:insensitive="true">
    <g
       style="display:inline"
       id="g7610"
       transform="matrix(0.46161403,0,0,0.46161403,59.565782,82.677907)">
      <path
         inkscape:connector-curvature="0"
         id="path6178"
         d="m 88.048867,153.20728 c 0,0 -7.10743,10.58776 -8.686649,17.83632 -2.854812,13.10323 0.471189,14.60919 0.0493,24.35687 -0.542901,12.54254 -2.321251,9.43226 -8.802582,9.75414 -7.931739,-1.95732 -7.688399,1.91487 -5.693569,6.16935 1.813851,4.12083 5.986791,4.55418 12.377341,6.50149 7.444708,2.26855 12.095469,3.93337 15.987919,-3.99385 5.096841,-10.38008 1.476581,-7.39857 8.398573,-19.18205 4.67877,-7.54067 13.47433,-13.72085 18.10515,-19.1213 4.63082,-5.40046 8.07814,-10.80465 9.62978,-14.91652 -8.04119,-29.91667 -57.438314,-48.59811 -41.365263,-7.40445 z"
         style="display:inline;opacity:1;fill:#5f4dbc;fill-opacity:1;fill-rule:evenodd;stroke:#ffffff;stroke-width:0;stroke-linecap:round;stroke-linejoin:round;stroke-miterlimit:4;stroke-dasharray:none;stroke-dashoffset:0;stroke-opacity:1;enable-background:new"
         sodipodi:nodetypes="cssccsscscc" />
      <path
         style="display:inline;opacity:1;fill:#5f4dbc;fill-opacity:1;fill-rule:evenodd;stroke:none;stroke-width:0;stroke-linecap:round;stroke-linejoin:round;stroke-miterlimit:4;stroke-dasharray:none;stroke-dashoffset:0;stroke-opacity:1;enable-background:new"
         d="m 91.912887,93.351795 c 0,0 -13.48554,7.755155 -16.849119,10.807355 -3.36359,3.05221 -4.889582,14.10855 -8.626922,14.66921 -3.737339,0.56063 -12.021799,0.52956 -14.419939,1.52623 -2.398116,0.99665 -11.211906,14.42008 -1.05877,14.17081 10.15315,-0.24925 48.616721,-2.83466 51.450843,-5.17055 2.83414,-2.33587 7.66118,-38.089937 4.2664,-39.491406 -3.39477,-1.401469 -14.762493,3.488351 -14.762493,3.488351 z"
         id="path6180"
         inkscape:connector-curvature="0" />
      <path
         style="display:inline;opacity:1;fill:#5f92bc;fill-opacity:1;fill-rule:evenodd;stroke:#ffffff;stroke-width:1.85208333;stroke-linecap:round;stroke-linejoin:round;stroke-miterlimit:4;stroke-dasharray:none;stroke-dashoffset:0;stroke-opacity:1;enable-background:new"
         d="m 136.72317,152.98171 c 0.55613,-1.11228 -9.92991,-35.18653 -8.81764,-43.52854 1.11226,-8.34202 3.35499,-19.523747 -5.26509,-33.705178 -8.62008,-14.18143 -10.84461,-26.972522 -21.1331,-32.255796 0,0 -1.682382,-5.584001 -3.449103,-7.344929 -5.404231,-5.496766 -8.498041,2.117668 -11.061001,2.176829 -2.797559,0.06458 -9.403689,0.719024 -15.52116,5.724233 -6.117468,5.00521 -5.76988,6.812649 -10.844619,8.272501 -5.07473,1.459854 -10.34402,2.683809 -7.0212,6.117481 1.94647,4.171003 0.83421,6.465057 7.0212,5.074727 0,0 -4.24035,1.25072 -3.5106,2.224532 1.65046,2.202463 2.09514,4.56122 11.795029,3.579093 9.39669,-0.951426 14.809121,7.045054 14.67009,10.937996 -0.139049,3.892941 -5.70797,13.009975 -6.66373,23.537401 -2.572919,17.23533 5.84309,25.69846 7.14792,40.9146 l 22.998514,-10.84261 c 0,0 25.34445,9.24627 29.65449,19.11766 z"
         id="path6182"
         inkscape:connector-curvature="0"
         sodipodi:nodetypes="ccsccsssccssscccc" />
      <path
         sodipodi:nodetypes="ccssccsscsccc"
         style="display:inline;opacity:1;fill:#ff82bc;fill-opacity:1;fill-rule:evenodd;stroke:#ffffff;stroke-width:1.85208333;stroke-linecap:round;stroke-linejoin:round;stroke-miterlimit:4;stroke-dasharray:none;stroke-dashoffset:0;stroke-opacity:1;enable-background:new"
         d="m 84.070166,144.70666 c 0,0 7.05789,16.60181 12.173411,21.64626 0,0 -3.452001,9.45967 -1.9376,16.87662 2.737591,13.4077 6.463013,13.44209 10.088013,22.71463 4.66436,11.93117 1.72212,9.7612 -4.19491,12.73379 -8.210554,1.44317 -6.386963,4.9572 -2.770903,8.10591 3.392023,3.09858 7.465743,1.78263 14.233603,0.96555 7.88426,-0.95187 12.9117,-1.31535 13.27666,-10.31948 0.47788,-11.79025 -1.67206,-7.51469 -0.0692,-21.36734 1.25829,-8.96752 6.92015,-18.36244 9.01606,-25.3125 2.09592,-6.95008 3.08561,-13.41566 2.83867,-17.89344 -0.49389,-8.95554 -21.39188,-19.06938 -32.77608,-23.24054 -17.494511,3.08446 -19.910292,-3.14086 -19.877722,15.09054 z"
         id="path6184"
         inkscape:connector-curvature="0" />
      <path
         style="display:inline;opacity:1;fill:#dc82bc;fill-opacity:1;fill-rule:evenodd;stroke:#ffffff;stroke-width:0;stroke-linecap:round;stroke-linejoin:round;stroke-miterlimit:4;stroke-dasharray:none;stroke-dashoffset:0;stroke-opacity:1;enable-background:new"
         d="m 113.14219,119.6884 c -0.13363,-0.8018 -9.75534,-29.533277 -16.169813,-28.731465 -6.414461,0.80181 -3.875411,22.584275 -4.00903,24.187885 -0.133631,1.60362 -8.95354,11.22532 -11.8935,12.02713 -2.939971,0.8018 -5.479021,3.8754 -7.21628,6.54811 -1.737239,2.67268 -4.543571,4.27632 -5.879921,4.94448 -1.33636,0.66818 -5.078129,10.82443 -6.548109,12.29441 -1.46999,1.46998 -3.60813,3.74178 -0.8018,4.27632 2.80633,0.53453 6.949,1.73724 8.81989,1.46998 1.870889,-0.26728 11.893499,-6.94902 16.169809,-10.82443 4.276312,-3.87541 19.911574,-12.96257 22.584264,-16.57072 2.6727,-3.60813 5.7463,-5.07811 4.94449,-9.6217 z"
         id="path6186"
         inkscape:connector-curvature="0" />
      <path
         inkscape:connector-curvature="0"
         id="path7575"
         d="m 107.34524,131.06845 c 0,0 -20.883189,14.07961 -22.017116,15.96949"
         style="opacity:1;fill:none;fill-opacity:1;fill-rule:evenodd;stroke:#ffffff;stroke-width:1.85208333;stroke-linecap:round;stroke-linejoin:round;stroke-miterlimit:4;stroke-dasharray:none;stroke-dashoffset:0;stroke-opacity:1" />
    </g>
    <g
       style="display:inline"
       id="g7624"
       transform="matrix(-0.46161403,0,0,0.46161403,301.00314,82.677907)">
      <path
         sodipodi:nodetypes="cssccsscscc"
         style="display:inline;opacity:1;fill:#5f4dbc;fill-opacity:1;fill-rule:evenodd;stroke:#ffffff;stroke-width:0;stroke-linecap:round;stroke-linejoin:round;stroke-miterlimit:4;stroke-dasharray:none;stroke-dashoffset:0;stroke-opacity:1;enable-background:new"
         d="m 88.048867,153.20728 c 0,0 -7.10743,10.58776 -8.686649,17.83632 -2.854812,13.10323 0.471189,14.60919 0.0493,24.35687 -0.542901,12.54254 -2.321251,9.43226 -8.802582,9.75414 -7.931739,-1.95732 -7.688399,1.91487 -5.693569,6.16935 1.813851,4.12083 5.986791,4.55418 12.377341,6.50149 7.444708,2.26855 12.095469,3.93337 15.987919,-3.99385 5.096841,-10.38008 1.476581,-7.39857 8.398573,-19.18205 4.67877,-7.54067 13.47433,-13.72085 18.10515,-19.1213 4.63082,-5.40046 8.07814,-10.80465 9.62978,-14.91652 -8.04119,-29.91667 -57.438314,-48.59811 -41.365263,-7.40445 z"
         id="path7612"
         inkscape:connector-curvature="0" />
      <path
         inkscape:connector-curvature="0"
         id="path7614"
         d="m 91.912887,93.351795 c 0,0 -13.48554,7.755155 -16.849119,10.807355 -3.36359,3.05221 -4.889582,14.10855 -8.626922,14.66921 -3.737339,0.56063 -12.021799,0.52956 -14.419939,1.52623 -2.398116,0.99665 -11.211906,14.42008 -1.05877,14.17081 10.15315,-0.24925 48.616721,-2.83466 51.450843,-5.17055 2.83414,-2.33587 7.66118,-38.089937 4.2664,-39.491406 -3.39477,-1.401469 -14.762493,3.488351 -14.762493,3.488351 z"
         style="display:inline;opacity:1;fill:#5f4dbc;fill-opacity:1;fill-rule:evenodd;stroke:none;stroke-width:0;stroke-linecap:round;stroke-linejoin:round;stroke-miterlimit:4;stroke-dasharray:none;stroke-dashoffset:0;stroke-opacity:1;enable-background:new" />
      <path
         sodipodi:nodetypes="ccsccsssccssscccc"
         inkscape:connector-curvature="0"
         id="path7616"
         d="m 136.72317,152.98171 c 0.55613,-1.11228 -9.92991,-35.18653 -8.81764,-43.52854 1.11226,-8.34202 3.35499,-19.523747 -5.26509,-33.705178 -8.62008,-14.18143 -10.84461,-26.972522 -21.1331,-32.255796 0,0 -1.682382,-5.584001 -3.449103,-7.344929 -5.404231,-5.496766 -8.498041,2.117668 -11.061001,2.176829 -2.797559,0.06458 -9.403689,0.719024 -15.52116,5.724233 -6.117468,5.00521 -5.76988,6.812649 -10.844619,8.272501 -5.07473,1.459854 -10.34402,2.683809 -7.0212,6.117481 1.94647,4.171003 0.83421,6.465057 7.0212,5.074727 0,0 -4.24035,1.25072 -3.5106,2.224532 1.65046,2.202463 2.09514,4.56122 11.795029,3.579093 9.39669,-0.951426 14.809121,7.045054 14.67009,10.937996 -0.139049,3.892941 -5.70797,13.009975 -6.66373,23.537401 -2.572919,17.23533 5.84309,25.69846 7.14792,40.9146 l 22.998514,-10.84261 c 0,0 25.34445,9.24627 29.65449,19.11766 z"
         style="display:inline;opacity:1;fill:#5f92bc;fill-opacity:1;fill-rule:evenodd;stroke:#ffffff;stroke-width:1.85208333;stroke-linecap:round;stroke-linejoin:round;stroke-miterlimit:4;stroke-dasharray:none;stroke-dashoffset:0;stroke-opacity:1;enable-background:new" />
      <path
         inkscape:connector-curvature="0"
         id="path7618"
         d="m 84.070166,144.70666 c 0,0 7.05789,16.60181 12.173411,21.64626 0,0 -3.452001,9.45967 -1.9376,16.87662 2.737591,13.4077 6.463013,13.44209 10.088013,22.71463 4.66436,11.93117 1.72212,9.7612 -4.19491,12.73379 -8.210554,1.44317 -6.386963,4.9572 -2.770903,8.10591 3.392023,3.09858 7.465743,1.78263 14.233603,0.96555 7.88426,-0.95187 12.9117,-1.31535 13.27666,-10.31948 0.47788,-11.79025 -1.67206,-7.51469 -0.0692,-21.36734 1.25829,-8.96752 6.92015,-18.36244 9.01606,-25.3125 2.09592,-6.95008 3.08561,-13.41566 2.83867,-17.89344 -0.49389,-8.95554 -21.39188,-19.06938 -32.77608,-23.24054 -17.494511,3.08446 -19.910292,-3.14086 -19.877722,15.09054 z"
         style="display:inline;opacity:1;fill:#ff82bc;fill-opacity:1;fill-rule:evenodd;stroke:#ffffff;stroke-width:1.85208333;stroke-linecap:round;stroke-linejoin:round;stroke-miterlimit:4;stroke-dasharray:none;stroke-dashoffset:0;stroke-opacity:1;enable-background:new"
         sodipodi:nodetypes="ccssccsscsccc" />
      <path
         inkscape:connector-curvature="0"
         id="path7620"
         d="m 113.14219,119.6884 c -0.13363,-0.8018 -9.75534,-29.533277 -16.169813,-28.731465 -6.414461,0.80181 -3.875411,22.584275 -4.00903,24.187885 -0.133631,1.60362 -8.95354,11.22532 -11.8935,12.02713 -2.939971,0.8018 -5.479021,3.8754 -7.21628,6.54811 -1.737239,2.67268 -4.543571,4.27632 -5.879921,4.94448 -1.33636,0.66818 -5.078129,10.82443 -6.548109,12.29441 -1.46999,1.46998 -3.60813,3.74178 -0.8018,4.27632 2.80633,0.53453 6.949,1.73724 8.81989,1.46998 1.870889,-0.26728 11.893499,-6.94902 16.169809,-10.82443 4.276312,-3.87541 19.911574,-12.96257 22.584264,-16.57072 2.6727,-3.60813 5.7463,-5.07811 4.94449,-9.6217 z"
         style="display:inline;opacity:1;fill:#dc82bc;fill-opacity:1;fill-rule:evenodd;stroke:#ffffff;stroke-width:0;stroke-linecap:round;stroke-linejoin:round;stroke-miterlimit:4;stroke-dasharray:none;stroke-dashoffset:0;stroke-opacity:1;enable-background:new" />
      <path
         style="opacity:1;fill:none;fill-opacity:1;fill-rule:evenodd;stroke:#ffffff;stroke-width:1.85208333;stroke-linecap:round;stroke-linejoin:round;stroke-miterlimit:4;stroke-dasharray:none;stroke-dashoffset:0;stroke-opacity:1"
         d="m 107.34524,131.06845 c 0,0 -20.883189,14.07961 -22.017116,15.96949"
         id="path7622"
         inkscape:connector-curvature="0" />
    </g>
  </g>
  <g
     inkscape:groupmode="layer"
     id="layer9"
     inkscape:label="text"
     style="display:inline"
     sodipodi:insensitive="true">
    <g
       aria-label="BEARJAM"
       transform="matrix(0.16408228,0,0,0.16408228,65.268278,38.144195)"
       style="font-style:normal;font-weight:normal;font-size:40px;line-height:1.25;font-family:sans-serif;letter-spacing:0px;word-spacing:0px;display:inline;fill:#000000;fill-opacity:1;stroke:#ffffff;stroke-width:3.20001411;stroke-miterlimit:4;stroke-dasharray:none;stroke-opacity:1"
       id="flowRoot7719">
      <path
         d="m 509.96237,57.018179 q 0.1875,0.140625 1.07813,0.140625 0.89062,0 1.35937,-0.609375 0.46875,-0.609375 0.46875,-2.15625 v -0.890625 q 0,-1.734375 -0.42187,-2.484375 -0.375,-0.75 -1.3125,-0.75 -0.89063,0 -1.21875,0.1875 0.0469,0.234375 0.0469,0.796875 z m 0,-17.671875 q 0.1875,0.140625 1.07813,0.140625 0.89062,0 1.35937,-0.703125 0.46875,-0.703125 0.46875,-2.296875 v -0.28125 q 0,-1.6875 -0.42187,-2.390625 -0.375,-0.75 -1.3125,-0.75 -0.89063,0 -1.21875,0.1875 0.0469,0.234375 0.0469,0.796875 z M 484.50925,21.299429 q 0,-1.078125 1.78125,-2.4375 3.75,-2.859375 13.21875,-4.453125 4.92187,-0.796875 10.82812,-0.796875 14.0625,0 21.28125,5.4375 6.32813,4.78125 6.32813,12.5625 0,2.8125 -0.98438,5.53125 -0.98437,2.671875 -2.8125,4.03125 -2.48437,-1.265625 -4.78125,-1.265625 -1.07812,0 -1.64062,0.421875 -0.5625,0.421875 -0.5625,1.546875 6.89062,0.28125 10.73437,4.96875 3.42188,4.265625 3.42188,10.59375 0,9.796875 -8.20313,14.25 -7.6875,4.171875 -23.15625,4.171875 -10.82812,0 -15.89062,-0.65625 -5.0625,-0.703125 -7.3125,-3.234375 -2.25,-2.53125 -2.25,-7.6875 z"
         style="font-style:normal;font-variant:normal;font-weight:normal;font-stretch:normal;font-size:96px;font-family:Modak;-inkscape-font-specification:Modak;text-align:center;letter-spacing:3.84001708px;text-anchor:middle;fill:#000000;fill-opacity:1;stroke:#ffffff;stroke-width:3.20001411;stroke-miterlimit:4;stroke-dasharray:none;stroke-opacity:1"
         id="path16190"
         inkscape:connector-curvature="0" />
      <path
         d="m 568.50551,14.877554 h 27.04688 q 1.35937,2.25 2.01562,4.921875 0.65625,2.625 0.65625,4.734375 0,4.734375 -1.875,7.125 -1.82812,2.390625 -5.15625,2.390625 h -18.89062 q -1.73438,0 -1.73438,1.359375 v 0.375 q 0,0.28125 0.0937,0.375 h 22.40625 q 0.84375,1.453125 1.45313,3.65625 0.5625,2.390625 0.5625,4.265625 0,5.578125 -2.0625,8.71875 h -10.17188 q -7.125,0 -9.65625,0.5625 -2.53125,0.515625 -3.14062,0.890625 -0.60938,0.421875 -0.60938,1.078125 0,0.65625 0.65625,1.03125 2.4375,-0.796875 5.10938,-1.125 3.51562,-0.328125 7.64062,-0.328125 h 13.17188 q 2.85937,4.03125 2.85937,9.703125 0,3.1875 -0.79687,6.09375 -0.79688,2.90625 -2.39063,4.6875 h -35.10937 q -5.8125,0 -9.32813,-2.8125 -3.84375,-3 -3.84375,-8.8125 V 19.190054 q 0,-2.25 5.15625,-3.28125 5.15625,-1.03125 15.9375,-1.03125 z"
         style="font-style:normal;font-variant:normal;font-weight:normal;font-stretch:normal;font-size:96px;font-family:Modak;-inkscape-font-specification:Modak;text-align:center;letter-spacing:3.84001708px;text-anchor:middle;fill:#000000;fill-opacity:1;stroke:#ffffff;stroke-width:3.20001411;stroke-miterlimit:4;stroke-dasharray:none;stroke-opacity:1"
         id="path16192"
         inkscape:connector-curvature="0" />
      <path
         d="m 634.36115,44.549429 q 0.375,0.375 1.17188,0.375 0.79687,0 1.35937,-0.328125 -1.21875,-7.125 -1.64062,-8.4375 -0.51563,-1.359375 -1.54688,-1.359375 -0.46875,0 -1.125,0.28125 z m -9.28125,14.0625 q -0.46875,0.65625 -0.46875,1.21875 0,1.359375 2.53125,2.296875 2.57813,0.890625 6.23438,1.125 0.60937,6.75 1.3125,7.6875 -0.89063,1.734375 -4.92188,3.515625 -4.03125,1.734375 -9.09375,1.734375 -6.70312,0 -11.48437,-2.859375 -4.78125,-2.90625 -4.78125,-7.453125 0,-1.21875 0.23437,-2.15625 l 9.98438,-44.625 q 3.75,-2.390625 8.95312,-3.75 5.20313,-1.359375 10.82813,-1.359375 8.0625,0 13.78125,2.71875 6.51562,3.09375 7.92187,8.953125 l 10.6875,44.203125 q -4.875,6.328125 -15.89062,6.328125 -5.34375,0 -9.04688,-1.921875 -3.70312,-1.921875 -4.3125,-5.484375 l -1.03125,-5.71875 q 2.8125,-0.04687 5.4375,-1.078125 2.625,-1.03125 2.625,-2.15625 0,-0.75 -0.60937,-1.21875 -1.78125,1.265625 -4.35938,1.921875 -2.57812,0.65625 -4.78125,0.65625 -6.32812,0 -9.75,-2.578125 z"
         style="font-style:normal;font-variant:normal;font-weight:normal;font-stretch:normal;font-size:96px;font-family:Modak;-inkscape-font-specification:Modak;text-align:center;letter-spacing:3.84001708px;text-anchor:middle;fill:#000000;fill-opacity:1;stroke:#ffffff;stroke-width:3.20001411;stroke-miterlimit:4;stroke-dasharray:none;stroke-opacity:1"
         id="path16194"
         inkscape:connector-curvature="0" />
      <path
         d="m 698.29492,42.018179 q 0.1875,0.140625 1.07813,0.140625 0.89062,0 1.35937,-0.703125 0.46875,-0.703125 0.46875,-2.296875 v -1.6875 q 0,-1.6875 -0.42187,-2.390625 -0.375,-0.75 -1.3125,-0.75 -0.89063,0 -1.21875,0.1875 0.0469,0.234375 0.0469,0.796875 z m 24.1875,10.6875 8.10938,8.296875 q -0.84375,7.3125 -4.64063,11.25 -3.75,3.9375 -10.40625,3.9375 -5.01562,0 -8.71875,-2.390625 -4.73437,-3 -7.07812,-9.5625 l -1.6875,-4.59375 q -1.96875,-0.04687 -4.96875,-0.515625 -0.375,0.375 -0.375,1.03125 0,1.265625 3.79687,1.5 l 2.67188,6.75 v 3.984375 q -5.39063,3.796875 -13.82813,3.796875 -6.04687,0 -9.65625,-2.484375 -3.60937,-2.484375 -3.60937,-7.21875 v -44.53125 q 0,-2.0625 3.79687,-3.984375 3.79688,-1.96875 9.9375,-3.140625 6.14063,-1.21875 12.28125,-1.21875 14.0625,0 21.98438,5.765625 8.34375,6.046875 8.34375,17.015625 0,6.28125 -3.5625,10.78125 -3.51563,4.453125 -8.90625,6.1875 0,1.5 1.78125,1.5 1.82812,0 4.73437,-2.15625 z"
         style="font-style:normal;font-variant:normal;font-weight:normal;font-stretch:normal;font-size:96px;font-family:Modak;-inkscape-font-specification:Modak;text-align:center;letter-spacing:3.84001708px;text-anchor:middle;fill:#000000;fill-opacity:1;stroke:#ffffff;stroke-width:3.20001411;stroke-miterlimit:4;stroke-dasharray:none;stroke-opacity:1"
         id="path16196"
         inkscape:connector-curvature="0" />
      <path
         d="m 780.83806,53.924429 q 0,9.890625 -6.28125,16.078125 -6.65625,6.65625 -18.375,6.65625 -6.70313,0 -12.70313,-3.46875 -4.59375,-2.625 -6.98437,-6.046875 -0.46875,-2.859375 -0.46875,-5.203125 0,-7.640625 4.64062,-11.71875 3.75,-3.28125 9.23438,-3.28125 4.17187,0 7.59375,2.203125 3.46875,2.34375 5.10937,6.46875 1.5,0 1.5,-1.546875 0,-0.796875 -0.70312,-2.109375 -0.65625,-1.3125 -1.92188,-2.625 -3.32812,-3.421875 -8.01562,-4.21875 v -27 q 2.34375,-1.734375 5.90625,-2.90625 3.5625,-1.171875 8.10937,-1.171875 4.54688,0 8.20313,1.59375 5.15625,2.34375 5.15625,7.03125 z"
         style="font-style:normal;font-variant:normal;font-weight:normal;font-stretch:normal;font-size:96px;font-family:Modak;-inkscape-font-specification:Modak;text-align:center;letter-spacing:3.84001708px;text-anchor:middle;fill:#000000;fill-opacity:1;stroke:#ffffff;stroke-width:3.20001411;stroke-miterlimit:4;stroke-dasharray:none;stroke-opacity:1"
         id="path16198"
         inkscape:connector-curvature="0" />
      <path
         d="m 815.56869,44.549429 q 0.375,0.375 1.17188,0.375 0.79687,0 1.35937,-0.328125 -1.21875,-7.125 -1.64062,-8.4375 -0.51563,-1.359375 -1.54688,-1.359375 -0.46875,0 -1.125,0.28125 z m -9.28125,14.0625 q -0.46875,0.65625 -0.46875,1.21875 0,1.359375 2.53125,2.296875 2.57813,0.890625 6.23438,1.125 0.60937,6.75 1.3125,7.6875 -0.89063,1.734375 -4.92188,3.515625 -4.03125,1.734375 -9.09375,1.734375 -6.70312,0 -11.48437,-2.859375 -4.78125,-2.90625 -4.78125,-7.453125 0,-1.21875 0.23437,-2.15625 l 9.98438,-44.625 q 3.75,-2.390625 8.95312,-3.75 5.20313,-1.359375 10.82813,-1.359375 8.0625,0 13.78125,2.71875 6.51562,3.09375 7.92187,8.953125 l 10.6875,44.203125 q -4.875,6.328125 -15.89062,6.328125 -5.34375,0 -9.04688,-1.921875 -3.70312,-1.921875 -4.3125,-5.484375 l -1.03125,-5.71875 q 2.8125,-0.04687 5.4375,-1.078125 2.625,-1.03125 2.625,-2.15625 0,-0.75 -0.60937,-1.21875 -1.78125,1.265625 -4.35938,1.921875 -2.57812,0.65625 -4.78125,0.65625 -6.32812,0 -9.75,-2.578125 z"
         style="font-style:normal;font-variant:normal;font-weight:normal;font-stretch:normal;font-size:96px;font-family:Modak;-inkscape-font-specification:Modak;text-align:center;letter-spacing:3.84001708px;text-anchor:middle;fill:#000000;fill-opacity:1;stroke:#ffffff;stroke-width:3.20001411;stroke-miterlimit:4;stroke-dasharray:none;stroke-opacity:1"
         id="path16200"
         inkscape:connector-curvature="0" />
      <path
         d="m 905.98685,76.190054 q -6.42188,0 -10.07813,-2.109375 -3.9375,-2.203125 -4.26562,-6.234375 l -0.42188,-4.40625 q 4.3125,-1.03125 7.26563,-5.34375 0.79687,-1.21875 0.79687,-2.109375 0,-1.21875 -1.21875,-1.21875 h -0.14062 q -0.0469,0.04687 -0.1875,0.04687 -3.28125,6.890625 -10.64063,6.890625 -3.75,0 -6.42187,-1.640625 -2.625,-1.640625 -4.82813,-5.671875 h -0.28125 q -1.26562,0 -1.26562,1.078125 0,0.75 0.5625,1.6875 1.875,3.140625 4.6875,4.921875 2.20312,1.5 4.64062,1.78125 l -0.375,8.859375 q -2.8125,1.828125 -5.95312,2.625 -3.09375,0.84375 -8.85938,0.84375 -5.71875,0 -10.21875,-2.25 -5.53125,-2.765625 -5.53125,-7.6875 0,-6.140625 2.4375,-30.328125 1.3125,-12.609375 2.10938,-17.625 4.82812,-4.3125 14.25,-4.3125 6.84375,0 11.34375,2.53125 l 2.57812,8.625 -1.64062,6.890625 q -0.1875,0.703125 -0.1875,1.359375 0,1.640625 1.875,1.6875 l 4.45312,-18.515625 q 1.92188,-1.03125 5.01563,-1.78125 3.09375,-0.796875 6.75,-0.796875 6.84375,0 10.125,2.34375 3.32812,2.296875 3.9375,7.78125 0.14062,1.03125 0.42187,3.421875 4.26563,36.65625 4.26563,43.171875 -5.20313,5.484375 -15,5.484375 z"
         style="font-style:normal;font-variant:normal;font-weight:normal;font-stretch:normal;font-size:96px;font-family:Modak;-inkscape-font-specification:Modak;text-align:center;letter-spacing:3.84001708px;text-anchor:middle;fill:#000000;fill-opacity:1;stroke:#ffffff;stroke-width:3.20001411;stroke-miterlimit:4;stroke-dasharray:none;stroke-opacity:1"
         id="path16202"
         inkscape:connector-curvature="0" />
    </g>
    <flowRoot
       xml:space="preserve"
       id="flowRoot15365"
       style="font-style:normal;font-weight:normal;font-size:40px;line-height:1.25;font-family:sans-serif;letter-spacing:0px;word-spacing:0px;display:inline;fill:#000000;fill-opacity:1;stroke:none"
       transform="matrix(0.26458333,0,0,0.26458333,5.3453895,-2.9399649)"><flowRegion
         id="flowRegion15367"><rect
           id="rect15369"
           width="271.73102"
           height="182.83762"
           x="547.50262"
           y="256.86282" /></flowRegion><flowPara
         id="flowPara15371"
         style="font-style:normal;font-variant:normal;font-weight:normal;font-stretch:normal;font-size:24px;font-family:'Gangster Grotesk Regular';-inkscape-font-specification:'Gangster Grotesk Regular, '" /></flowRoot>    <path
       style="display:inline;opacity:1;fill:#cccccc;fill-opacity:0.9901962;fill-rule:evenodd;stroke:none;stroke-width:0.69896644;stroke-linecap:round;stroke-linejoin:round;stroke-miterlimit:4;stroke-dasharray:none;stroke-dashoffset:0;stroke-opacity:0.50490196"
       d="m 144.86006,61.941338 c 23.96517,0 47.93034,0 71.8955,0 0,17.478085 0,34.956176 0,52.434252 -23.96516,0 -47.93033,0 -71.8955,0 0,-17.478076 0,-34.956167 0,-52.434252 z"
       id="rect15353"
       inkscape:connector-curvature="0" />
    <path
       inkscape:connector-curvature="0"
       id="path15442"
       d="m 144.86006,122.03956 c 23.96517,0 47.93034,0 71.8955,0 0,6.03477 0,12.06953 0,18.1043 -23.96516,0 -47.93033,0 -71.8955,0 0,-6.03477 0,-12.06953 0,-18.1043 z"
       style="display:inline;opacity:1;fill:#cccccc;fill-opacity:0.9901962;fill-rule:evenodd;stroke:none;stroke-width:0.41071415;stroke-linecap:round;stroke-linejoin:round;stroke-miterlimit:4;stroke-dasharray:none;stroke-dashoffset:0;stroke-opacity:0.50490196" />
  </g>
  <g
     inkscape:groupmode="layer"
     id="layer10"
     inkscape:label="decor"
     style="display:inline"
     sodipodi:insensitive="true">
    <rect
       ry="56.354065"
       y="15.432443"
       x="555.69318"
       height="141.40697"
       width="112.70814"
       id="rect2010-6"
       style="opacity:1;fill:#feffff;fill-opacity:1;fill-rule:evenodd;stroke:none;stroke-width:0.51655269;stroke-miterlimit:4;stroke-dasharray:none;stroke-opacity:1" />
    <path
       inkscape:connector-curvature="0"
       id="path9237"
       d="m 180.88339,5.5903677 0.0697,25.1665703"
       style="opacity:0.51000001;fill:none;stroke:#000000;stroke-width:0.42357868;stroke-linecap:round;stroke-linejoin:round;stroke-miterlimit:4;stroke-dasharray:none;stroke-opacity:1"
       sodipodi:nodetypes="cc" />
    <path
       style="opacity:0.51000001;fill:none;stroke:#000000;stroke-width:0.42357868;stroke-linecap:round;stroke-linejoin:round;stroke-miterlimit:4;stroke-dasharray:none;stroke-opacity:1"
       d="M 171.63618,8.0895671 180.9531,30.756938"
       id="path9239"
       inkscape:connector-curvature="0"
       sodipodi:nodetypes="cc" />
    <path
       inkscape:connector-curvature="0"
       id="path9241"
       d="m 165.92776,13.650152 14.80137,17.130807"
       style="opacity:0.51000001;fill:none;stroke:#000000;stroke-width:0.42357868;stroke-linecap:round;stroke-linejoin:round;stroke-miterlimit:4;stroke-dasharray:none;stroke-opacity:1"
       sodipodi:nodetypes="cc" />
    <path
       style="opacity:0.51000001;fill:none;stroke:#000000;stroke-width:0.42357868;stroke-linecap:round;stroke-linejoin:round;stroke-miterlimit:4;stroke-dasharray:none;stroke-opacity:1"
       d="m 157.88209,18.085358 22.81633,12.699261"
       id="path9243"
       inkscape:connector-curvature="0"
       sodipodi:nodetypes="cc" />
    <path
       inkscape:connector-curvature="0"
       id="path9245"
       d="m 154.59337,26.592791 26.35973,4.164147"
       style="opacity:0.51000001;fill:none;stroke:#000000;stroke-width:0.42357868;stroke-linecap:round;stroke-linejoin:round;stroke-miterlimit:4;stroke-dasharray:none;stroke-opacity:1"
       sodipodi:nodetypes="cc" />
    <path
       style="opacity:0.51000001;fill:none;stroke:#000000;stroke-width:0.42357868;stroke-linecap:round;stroke-linejoin:round;stroke-miterlimit:4;stroke-dasharray:none;stroke-opacity:1"
       d="m 180.9531,30.756938 25.87437,-4.3709"
       id="path9247"
       inkscape:connector-curvature="0"
       sodipodi:nodetypes="cc" />
    <path
       inkscape:connector-curvature="0"
       id="path9249"
       d="M 180.59958,30.834695 203.6431,17.743673"
       style="opacity:0.51000001;fill:none;stroke:#000000;stroke-width:0.42357868;stroke-linecap:round;stroke-linejoin:round;stroke-miterlimit:4;stroke-dasharray:none;stroke-opacity:1"
       sodipodi:nodetypes="cc" />
    <path
       style="opacity:0.51000001;fill:none;stroke:#000000;stroke-width:0.42357868;stroke-linecap:round;stroke-linejoin:round;stroke-miterlimit:4;stroke-dasharray:none;stroke-opacity:1"
       d="M 180.69842,30.784619 194.98172,14.06821"
       id="path9251"
       inkscape:connector-curvature="0"
       sodipodi:nodetypes="cc" />
    <path
       inkscape:connector-curvature="0"
       id="path9253"
       d="M 180.9531,30.756938 188.95186,8.176732"
       style="opacity:0.51000001;fill:none;stroke:#000000;stroke-width:0.42357868;stroke-linecap:round;stroke-linejoin:round;stroke-miterlimit:4;stroke-dasharray:none;stroke-opacity:1"
       sodipodi:nodetypes="cc" />
    <path
       sodipodi:nodetypes="cccc"
       d="m 185.41136,7.4466237 -1.37258,5.9590943 m -0.39739,2.118507 -2.68829,15.232713"
       style="opacity:0.51999996;fill:none;stroke:#000000;stroke-width:0.42357868;stroke-linecap:round;stroke-linejoin:round;stroke-miterlimit:4;stroke-dasharray:none;stroke-opacity:1"
       id="path9255"
       inkscape:connector-curvature="0" />
    <path
       sodipodi:nodetypes="cccc"
       inkscape:connector-curvature="0"
       id="path9257"
       style="opacity:0.51999996;fill:none;stroke:#000000;stroke-width:0.42357868;stroke-linecap:round;stroke-linejoin:round;stroke-miterlimit:4;stroke-dasharray:none;stroke-opacity:1"
       d="m 176.10925,7.1866398 1.45835,6.1979982 m 0.381,2.121042 3.0045,15.251258" />
    <path
       sodipodi:nodetypes="cccc"
       d="m 169.67452,12.550353 1.94654,2.940051 m 0.97086,1.867749 8.13721,13.422806"
       style="opacity:0.51999996;fill:none;stroke:#000000;stroke-width:0.42357868;stroke-linecap:round;stroke-linejoin:round;stroke-miterlimit:4;stroke-dasharray:none;stroke-opacity:1"
       id="path9259"
       inkscape:connector-curvature="0" />
    <path
       sodipodi:nodetypes="cccc"
       inkscape:connector-curvature="0"
       id="path9261"
       style="opacity:0.51999996;fill:none;stroke:#000000;stroke-width:0.42357868;stroke-linecap:round;stroke-linejoin:round;stroke-miterlimit:4;stroke-dasharray:none;stroke-opacity:1"
       d="m 164.12918,17.603652 2.37666,1.865378 m 1.71157,1.389177 12.73569,9.898731" />
    <path
       d="m 159.91201,23.661571 3.33744,1.179064 m 2.10327,0.74305 15.60038,5.173253"
       style="opacity:0.51999996;fill:none;stroke:#000000;stroke-width:0.42357868;stroke-linecap:round;stroke-linejoin:round;stroke-miterlimit:4;stroke-dasharray:none;stroke-opacity:1"
       id="path9263"
       inkscape:connector-curvature="0"
       sodipodi:nodetypes="cccc" />
    <path
       d="m 180.9531,30.756938 14.55211,-4.846798 m 2.88602,-0.998055 3.22324,-1.114672"
       style="opacity:0.51999996;fill:none;stroke:#000000;stroke-width:0.42357868;stroke-linecap:round;stroke-linejoin:round;stroke-miterlimit:4;stroke-dasharray:none;stroke-opacity:1"
       id="path9267"
       inkscape:connector-curvature="0"
       sodipodi:nodetypes="cccc" />
    <path
       inkscape:connector-curvature="0"
       id="path9269"
       style="opacity:0.51999996;fill:none;stroke:#000000;stroke-width:0.42357868;stroke-linecap:round;stroke-linejoin:round;stroke-miterlimit:4;stroke-dasharray:none;stroke-opacity:1"
       d="m 180.9531,30.756938 11.84391,-9.38972 m 1.78651,-1.457975 2.63224,-2.10606"
       sodipodi:nodetypes="cccc" />
    <path
       sodipodi:nodetypes="cccc"
       d="m 180.9531,30.756938 7.68085,-12.768613 m 0.97308,-2.118195 2.38256,-3.742848"
       style="opacity:0.51999996;fill:none;stroke:#000000;stroke-width:0.42357868;stroke-linecap:round;stroke-linejoin:round;stroke-miterlimit:4;stroke-dasharray:none;stroke-opacity:1"
       id="path9271"
       inkscape:connector-curvature="0" />
    <path
       sodipodi:nodetypes="cccc"
       inkscape:connector-curvature="0"
       id="path15345"
       style="opacity:0.51999996;fill:none;stroke:#000000;stroke-width:0.42357868;stroke-linecap:round;stroke-linejoin:round;stroke-miterlimit:4;stroke-dasharray:none;stroke-opacity:1"
       d="m 180.38278,30.826564 15.33798,0.04068 m 3.05361,-0.02684 3.41041,-0.02997" />
    <path
       d="m 180.66958,30.826564 -15.33798,0.04068 m -3.05361,-0.02684 -3.41041,-0.02997"
       style="opacity:0.51999996;fill:none;stroke:#000000;stroke-width:0.42357868;stroke-linecap:round;stroke-linejoin:round;stroke-miterlimit:4;stroke-dasharray:none;stroke-opacity:1"
       id="path15347"
       inkscape:connector-curvature="0"
       sodipodi:nodetypes="cccc" />
    <path
       id="path8417"
       d="m 180.77769,22.10465 a 8.6796562,8.7284973 0 0 0 -8.67966,8.728496 8.6796562,8.7284973 0 0 0 0.007,0.227306 h 17.34011 a 8.6796562,8.7284973 0 0 0 0.0113,-0.227306 8.6796562,8.7284973 0 0 0 -8.67966,-8.728496 z"
       style="display:inline;opacity:1;fill:#cccccc;fill-opacity:0.9901962;fill-rule:evenodd;stroke:none;stroke-width:0.17408082;stroke-linecap:round;stroke-linejoin:round;stroke-miterlimit:4;stroke-dasharray:none;stroke-dashoffset:0;stroke-opacity:1"
       inkscape:connector-curvature="0" />
    <g
       style="display:inline"
       id="g16176">
      <g
         transform="rotate(7.4984457,803.03764,-840.02509)"
         id="g16165">
        <path
           style="fill:#004c25;fill-opacity:1;stroke:none;stroke-width:0.79374999;stroke-linecap:round;stroke-linejoin:round;stroke-miterlimit:4;stroke-dasharray:none;stroke-opacity:1"
           d="m 321.73808,266.03163 c 0,0 4.94448,-8.15172 10.28988,-9.6217 5.34538,-1.46998 11.75986,-4.54358 8.95353,-9.48807 -2.80633,-4.94448 -10.95806,0.80181 -10.95806,0.80181 0,0 7.34991,-4.14268 6.81537,-10.28988 -0.53454,-6.1472 -5.21173,-7.08264 -8.01806,-4.27631 -2.80633,2.80633 -4.00905,3.87541 -4.00905,3.87541 0,0 6.1472,-5.21176 5.34538,-10.69078 -0.8018,-5.47903 -6.28084,-6.54811 -8.95353,-2.27179 -2.67269,4.27631 -2.67269,4.00904 -2.67269,4.00904 0,0 5.61266,-12.2944 -4.14268,-11.22532 z"
           id="path1108"
           inkscape:connector-curvature="0" />
        <path
           inkscape:connector-curvature="0"
           id="path1276"
           d="m 320.42765,266.07658 c 0,0 -6.95662,-6.5195 -12.50041,-6.49605 -5.54377,0.0235 -12.5489,-1.20967 -11.17742,-6.72714 1.37149,-5.51746 10.7693,-2.17806 10.7693,-2.17806 0,0 -8.19386,-2.01088 -9.33408,-8.07501 -1.14023,-6.06413 3.11241,-8.22428 6.57067,-6.27714 3.45826,1.94716 4.9044,2.65295 4.9044,2.65295 0,0 -7.32339,-3.36429 -8.02631,-8.85687 -0.70294,-5.49259 4.28595,-7.99733 8.01129,-4.59849 3.72531,3.39883 3.65336,3.14143 3.65336,3.14143 0,0 -8.71547,-10.32931 0.96749,-11.92617 z"
           style="fill:#003120;fill-opacity:1;stroke:none;stroke-width:0.79374999;stroke-linecap:round;stroke-linejoin:round;stroke-miterlimit:4;stroke-dasharray:none;stroke-opacity:1" />
        <path
           style="opacity:1;fill:none;fill-opacity:1;fill-rule:evenodd;stroke:none;stroke-width:0.79374999;stroke-linecap:round;stroke-linejoin:round;stroke-miterlimit:4;stroke-dasharray:none;stroke-dashoffset:0;stroke-opacity:1"
           d="m 320.42765,266.07658 c 0,0 1.79742,8.51558 1.31043,-0.0449"
           id="path1294"
           inkscape:connector-curvature="0" />
      </g>
      <path
         inkscape:connector-curvature="0"
         id="path16169"
         d="m 181.51433,193.76382 c 0,0 -0.63453,5.24099 -1.30509,-0.12644 -0.67055,-5.36744 0.32989,-49.72271 0.32989,-49.72271 l 0.10579,0.13295 z"
         style="opacity:1;fill:#1c1c1c;fill-opacity:0.9901962;fill-rule:evenodd;stroke:none;stroke-width:0.79374999;stroke-linecap:round;stroke-linejoin:round;stroke-miterlimit:4;stroke-dasharray:none;stroke-dashoffset:0;stroke-opacity:0.50490196" />
    </g>
  </g>
</svg>
