<?xml version="1.0" encoding="UTF-8" standalone="no"?>
<!-- Created with Inkscape (http://www.inkscape.org/) -->

<svg
   xmlns:dc="http://purl.org/dc/elements/1.1/"
   xmlns:cc="http://creativecommons.org/ns#"
   xmlns:rdf="http://www.w3.org/1999/02/22-rdf-syntax-ns#"
   xmlns:svg="http://www.w3.org/2000/svg"
   xmlns="http://www.w3.org/2000/svg"
   xmlns:sodipodi="http://sodipodi.sourceforge.net/DTD/sodipodi-0.dtd"
   xmlns:inkscape="http://www.inkscape.org/namespaces/inkscape"
   inkscape:version="0.92.3 (2405546, 2018-03-11)"
   sodipodi:docname="fri24.svg"
   id="svg8"
   version="1.1"
   viewBox="0 0 423.33333 238.12501"
   height="900"
   width="1600"
   style="enable-background:new">
  <sodipodi:namedview
     inkscape:snap-to-guides="true"
     inkscape:snap-grids="true"
     inkscape:window-maximized="1"
     inkscape:window-y="27"
     inkscape:window-x="0"
     inkscape:window-height="845"
     inkscape:window-width="1600"
     units="px"
     showgrid="false"
     inkscape:current-layer="layer5"
     inkscape:document-units="mm"
     inkscape:cy="393.83392"
     inkscape:cx="501.41291"
     inkscape:zoom="0.49497475"
     inkscape:pageshadow="2"
     inkscape:pageopacity="0.0"
     borderopacity="1.0"
     bordercolor="#666666"
     pagecolor="#ffffff"
     id="base"
     inkscape:object-nodes="true"
     showguides="true"
     inkscape:guide-bbox="true"
     inkscape:object-paths="false">
    <sodipodi:guide
       id="guide7933"
       position="0.0,0"
       orientation="238.125,0"
       inkscape:locked="false" />
    <sodipodi:guide
       id="guide7935"
       position="26.4583,0"
       orientation="238.125,0"
       inkscape:locked="false" />
    <sodipodi:guide
       id="guide7937"
       position="52.9167,0"
       orientation="238.125,0"
       inkscape:locked="false" />
    <sodipodi:guide
       id="guide7939"
       position="79.375,0"
       orientation="238.125,0"
       inkscape:locked="false" />
    <sodipodi:guide
       id="guide7941"
       position="105.8333,0"
       orientation="238.125,0"
       inkscape:locked="false" />
    <sodipodi:guide
       id="guide7943"
       position="132.2917,0"
       orientation="238.125,0"
       inkscape:locked="false" />
    <sodipodi:guide
       id="guide7945"
       position="158.75,0"
       orientation="238.125,0"
       inkscape:locked="false" />
    <sodipodi:guide
       id="guide7947"
       position="185.2083,0"
       orientation="238.125,0"
       inkscape:locked="false" />
    <sodipodi:guide
       id="guide7949"
       position="211.6667,0"
       orientation="238.125,0"
       inkscape:locked="false" />
    <sodipodi:guide
       id="guide7951"
       position="238.125,0"
       orientation="238.125,0"
       inkscape:locked="false" />
    <sodipodi:guide
       id="guide7953"
       position="264.5833,0"
       orientation="238.125,0"
       inkscape:locked="false" />
    <sodipodi:guide
       id="guide7955"
       position="291.0417,0"
       orientation="238.125,0"
       inkscape:locked="false" />
    <sodipodi:guide
       id="guide7957"
       position="317.5,0"
       orientation="238.125,0"
       inkscape:locked="false" />
    <sodipodi:guide
       id="guide7959"
       position="343.9583,0"
       orientation="238.125,0"
       inkscape:locked="false" />
    <sodipodi:guide
       id="guide7961"
       position="370.4167,0"
       orientation="238.125,0"
       inkscape:locked="false" />
    <sodipodi:guide
       id="guide7963"
       position="396.875,0"
       orientation="238.125,0"
       inkscape:locked="false" />
    <sodipodi:guide
       id="guide7965"
       position="423.3333,0"
       orientation="238.125,0"
       inkscape:locked="false" />
    <sodipodi:guide
       id="guide7967"
       position="0,0.0"
       orientation="0,423.3333"
       inkscape:locked="false" />
    <sodipodi:guide
       id="guide7969"
       position="0,26.4583"
       orientation="0,423.3333"
       inkscape:locked="false" />
    <sodipodi:guide
       id="guide7971"
       position="0,52.9167"
       orientation="0,423.3333"
       inkscape:locked="false" />
    <sodipodi:guide
       id="guide7973"
       position="0,79.375"
       orientation="0,423.3333"
       inkscape:locked="false" />
    <sodipodi:guide
       id="guide7975"
       position="0,105.8333"
       orientation="0,423.3333"
       inkscape:locked="false" />
    <sodipodi:guide
       id="guide7977"
       position="0,132.2917"
       orientation="0,423.3333"
       inkscape:locked="false" />
    <sodipodi:guide
       id="guide7979"
       position="0,158.75"
       orientation="0,423.3333"
       inkscape:locked="false" />
    <sodipodi:guide
       id="guide7981"
       position="0,185.2083"
       orientation="0,423.3333"
       inkscape:locked="false" />
    <sodipodi:guide
       id="guide7983"
       position="0,211.6667"
       orientation="0,423.3333"
       inkscape:locked="false" />
    <sodipodi:guide
       id="guide7985"
       position="0,238.125"
       orientation="0,423.3333"
       inkscape:locked="false" />
  </sodipodi:namedview>
  <defs
     id="defs2" />
  <metadata
     id="metadata5">
    <rdf:RDF>
      <cc:Work
         rdf:about="">
        <dc:format>image/svg+xml</dc:format>
        <dc:type
           rdf:resource="http://purl.org/dc/dcmitype/StillImage" />
        <dc:title></dc:title>
      </cc:Work>
    </rdf:RDF>
  </metadata>
  <g
     style="display:inline"
     inkscape:label="desktop-bg"
     inkscape:groupmode="layer"
     id="layer1"
     transform="translate(0,-58.874983)">
    <rect
       style="opacity:1;fill:#ff783f;fill-opacity:1;fill-rule:evenodd;stroke:none;stroke-width:0.92755628;stroke-linecap:round;stroke-linejoin:round;stroke-miterlimit:4;stroke-dasharray:none;stroke-dashoffset:0;stroke-opacity:1"
       id="rect840"
       width="422.66431"
       height="237.84447"
       x="0.77983141"
       y="59.334873" />
  </g>
  <g
     transform="translate(0,34.925)"
     style="display:inline"
     inkscape:groupmode="layer"
     id="layer3"
     inkscape:label="tablet-bg">
    <rect
       ry="0"
       y="-34.910614"
       x="94.316238"
       height="238.11061"
       width="237.29234"
       id="rect845"
       style="display:inline;opacity:1;fill:#e1da28;fill-opacity:1;fill-rule:evenodd;stroke:none;stroke-width:1.26324368;stroke-linecap:round;stroke-linejoin:round;stroke-miterlimit:4;stroke-dasharray:none;stroke-dashoffset:0;stroke-opacity:1" />
  </g>
  <g
     transform="translate(0,34.925)"
     style="display:inline"
     inkscape:groupmode="layer"
     id="layer2"
     inkscape:label="mobile-bg">
    <rect
       style="display:inline;opacity:1;fill:#6fc1ff;fill-opacity:1;fill-rule:evenodd;stroke:none;stroke-width:0.92607707;stroke-linecap:round;stroke-linejoin:round;stroke-miterlimit:4;stroke-dasharray:none;stroke-dashoffset:0;stroke-opacity:1"
       id="rect843"
       width="127.90578"
       height="237.4063"
       x="148.82054"
       y="-34.154663"
       ry="0" />
  </g>
  <g
     transform="translate(0,34.925)"
     style="display:inline"
     inkscape:groupmode="layer"
     id="layer4"
     inkscape:label="side-design">
    <path
       inkscape:connector-curvature="0"
       id="path7792"
       d="m 0.76154043,-34.403871 a 46.567634,46.567634 0 0 0 -0.0260713,0.515397 46.567634,46.567634 0 0 0 46.56763587,46.567634 46.567634,46.567634 0 0 0 46.567631,-46.567634 46.567634,46.567634 0 0 0 -0.0182,-0.515397 z"
       style="opacity:1;fill:#ffd42a;fill-opacity:0.8;fill-rule:evenodd;stroke:none;stroke-width:0.93135267;stroke-linecap:round;stroke-linejoin:round;stroke-miterlimit:4;stroke-dasharray:none;stroke-dashoffset:0;stroke-opacity:1" />
    <path
       inkscape:connector-curvature="0"
       id="path3098"
       d="m 47.303102,194.9581 a 9.3135271,9.3135271 0 0 0 -9.313527,9.31353 h 18.627054 a 9.3135271,9.3135271 0 0 0 -9.313527,-9.31353 z"
       style="opacity:1;fill:#ffd42a;fill-opacity:0.8;fill-rule:evenodd;stroke:none;stroke-width:0.18627052;stroke-linecap:round;stroke-linejoin:round;stroke-miterlimit:4;stroke-dasharray:none;stroke-dashoffset:0;stroke-opacity:1" />
    <path
       inkscape:connector-curvature="0"
       style="opacity:1;fill:#ffd42a;fill-opacity:0.8;fill-rule:evenodd;stroke:none;stroke-width:0.74508214;stroke-linecap:round;stroke-linejoin:round;stroke-miterlimit:4;stroke-dasharray:none;stroke-dashoffset:0;stroke-opacity:1"
       d="M 84.557211,62.701093 A 37.254109,37.254109 0 0 1 47.303102,99.955192 37.254109,37.254109 0 0 1 10.048995,62.701093 37.254109,37.254109 0 0 1 47.303102,25.446985 37.254109,37.254109 0 0 1 84.557211,62.701093 Z"
       id="path4265" />
    <path
       inkscape:connector-curvature="0"
       style="opacity:1;fill:#ffd42a;fill-opacity:0.8;fill-rule:evenodd;stroke:none;stroke-width:0.46567634;stroke-linecap:round;stroke-linejoin:round;stroke-miterlimit:4;stroke-dasharray:none;stroke-dashoffset:0;stroke-opacity:1"
       d="M 70.586921,144.80957 A 23.283818,23.283818 0 0 1 47.303102,168.09339 23.283818,23.283818 0 0 1 24.019285,144.80957 23.283818,23.283818 0 0 1 47.303102,121.52576 23.283818,23.283818 0 0 1 70.586921,144.80957 Z"
       id="path4267" />
    <path
       inkscape:connector-curvature="0"
       id="path7787"
       d="m 423.33329,-34.369309 h -91.42151 a 45.720873,46.567634 0 0 0 -0.0119,0.238295 45.720873,46.567634 0 0 0 45.72088,46.567635 45.720873,46.567634 0 0 0 45.72088,-46.567635 45.720873,46.567634 0 0 0 -0.009,-0.238295 z"
       style="opacity:1;fill:#cccccc;fill-opacity:0.8;fill-rule:evenodd;stroke:none;stroke-width:0.30761537;stroke-linecap:round;stroke-linejoin:round;stroke-miterlimit:4;stroke-dasharray:none;stroke-dashoffset:0;stroke-opacity:1" />
    <path
       inkscape:connector-curvature="0"
       id="path4275"
       d="m 378.4675,-80.698649 a 46.567634,46.567634 0 0 0 -4.33296,0.242539 h 9.04977 a 46.567634,46.567634 0 0 0 -4.71681,-0.242539 z"
       style="opacity:1;fill:#cccccc;fill-opacity:0.8;fill-rule:evenodd;stroke:none;stroke-width:0.31045085;stroke-linecap:round;stroke-linejoin:round;stroke-miterlimit:4;stroke-dasharray:none;stroke-dashoffset:0;stroke-opacity:1" />
    <path
       inkscape:connector-curvature="0"
       id="path4277"
       d="m 378.4675,194.71556 a 9.3135271,9.3135271 0 0 0 -9.31353,9.31352 9.3135271,9.3135271 0 0 0 0.009,0.24255 h 18.60644 a 9.3135271,9.3135271 0 0 0 0.0121,-0.24255 9.3135271,9.3135271 0 0 0 -9.31352,-9.31352 z"
       style="opacity:1;fill:#cccccc;fill-opacity:0.8;fill-rule:evenodd;stroke:none;stroke-width:0.18627052;stroke-linecap:round;stroke-linejoin:round;stroke-miterlimit:4;stroke-dasharray:none;stroke-dashoffset:0;stroke-opacity:1" />
    <path
       id="path4279"
       d="m 415.72174,62.458408 a 37.254109,37.254109 0 0 1 -37.25412,37.254108 37.254109,37.254109 0 0 1 -37.2541,-37.254108 37.254109,37.254109 0 0 1 37.2541,-37.254109 37.254109,37.254109 0 0 1 37.25412,37.254109 z"
       style="opacity:1;fill:#cccccc;fill-opacity:0.8;fill-rule:evenodd;stroke:none;stroke-width:0.74508214;stroke-linecap:round;stroke-linejoin:round;stroke-miterlimit:4;stroke-dasharray:none;stroke-dashoffset:0;stroke-opacity:1"
       inkscape:connector-curvature="0" />
    <path
       id="path4281"
       d="m 401.75144,144.5669 a 23.283818,23.283818 0 0 1 -23.28382,23.28382 23.283818,23.283818 0 0 1 -23.28381,-23.28382 23.283818,23.283818 0 0 1 23.28381,-23.28382 23.283818,23.283818 0 0 1 23.28382,23.28382 z"
       style="opacity:1;fill:#cccccc;fill-opacity:0.8;fill-rule:evenodd;stroke:none;stroke-width:0.46567634;stroke-linecap:round;stroke-linejoin:round;stroke-miterlimit:4;stroke-dasharray:none;stroke-dashoffset:0;stroke-opacity:1"
       inkscape:connector-curvature="0" />
  </g>
  <g
     transform="translate(0,34.925)"
     style="display:inline"
     inkscape:label="bears"
     id="layer5"
     inkscape:groupmode="layer">
    <g
       transform="matrix(0.5416384,0,0,0.5416384,70.627439,62.856103)"
       id="g7610"
       style="display:inline">
      <path
         sodipodi:nodetypes="cssccsscscc"
         style="display:inline;opacity:1;fill:#5f4dbc;fill-opacity:1;fill-rule:evenodd;stroke:#ffffff;stroke-width:0;stroke-linecap:round;stroke-linejoin:round;stroke-miterlimit:4;stroke-dasharray:none;stroke-dashoffset:0;stroke-opacity:1;enable-background:new"
         d="m 88.048867,153.20728 c 0,0 -7.10743,10.58776 -8.686649,17.83632 -2.854812,13.10323 0.471189,14.60919 0.0493,24.35687 -0.542901,12.54254 -2.321251,9.43226 -8.802582,9.75414 -7.931739,-1.95732 -7.688399,1.91487 -5.693569,6.16935 1.813851,4.12083 5.986791,4.55418 12.377341,6.50149 7.444708,2.26855 12.095469,3.93337 15.987919,-3.99385 5.096841,-10.38008 1.476581,-7.39857 8.398573,-19.18205 4.67877,-7.54067 13.47433,-13.72085 18.10515,-19.1213 4.63082,-5.40046 8.07814,-10.80465 9.62978,-14.91652 -8.04119,-29.91667 -57.438314,-48.59811 -41.365263,-7.40445 z"
         id="path6178"
         inkscape:connector-curvature="0" />
      <path
         inkscape:connector-curvature="0"
         id="path6180"
         d="m 91.912887,93.351795 c 0,0 -13.48554,7.755155 -16.849119,10.807355 -3.36359,3.05221 -4.889582,14.10855 -8.626922,14.66921 -3.737339,0.56063 -12.021799,0.52956 -14.419939,1.52623 -2.398116,0.99665 -11.211906,14.42008 -1.05877,14.17081 10.15315,-0.24925 48.616721,-2.83466 51.450843,-5.17055 2.83414,-2.33587 7.66118,-38.089937 4.2664,-39.491406 -3.39477,-1.401469 -14.762493,3.488351 -14.762493,3.488351 z"
         style="display:inline;opacity:1;fill:#5f4dbc;fill-opacity:1;fill-rule:evenodd;stroke:none;stroke-width:0;stroke-linecap:round;stroke-linejoin:round;stroke-miterlimit:4;stroke-dasharray:none;stroke-dashoffset:0;stroke-opacity:1;enable-background:new" />
      <path
         sodipodi:nodetypes="ccsccsssccssscccc"
         inkscape:connector-curvature="0"
         id="path6182"
         d="m 136.72317,152.98171 c 0.55613,-1.11228 -9.92991,-35.18653 -8.81764,-43.52854 1.11226,-8.34202 3.35499,-19.523747 -5.26509,-33.705178 -8.62008,-14.18143 -10.84461,-26.972522 -21.1331,-32.255796 0,0 -1.682382,-5.584001 -3.449103,-7.344929 -5.404231,-5.496766 -8.498041,2.117668 -11.061001,2.176829 -2.797559,0.06458 -9.403689,0.719024 -15.52116,5.724233 -6.117468,5.00521 -5.76988,6.812649 -10.844619,8.272501 -5.07473,1.459854 -10.34402,2.683809 -7.0212,6.117481 1.94647,4.171003 0.83421,6.465057 7.0212,5.074727 0,0 -4.24035,1.25072 -3.5106,2.224532 1.65046,2.202463 2.09514,4.56122 11.795029,3.579093 9.39669,-0.951426 14.809121,7.045054 14.67009,10.937996 -0.139049,3.892941 -5.70797,13.009975 -6.66373,23.537401 -2.572919,17.23533 5.84309,25.69846 7.14792,40.9146 l 22.998514,-10.84261 c 0,0 25.34445,9.24627 29.65449,19.11766 z"
         style="display:inline;opacity:1;fill:#5f92bc;fill-opacity:1;fill-rule:evenodd;stroke:#ffffff;stroke-width:1.85208333;stroke-linecap:round;stroke-linejoin:round;stroke-miterlimit:4;stroke-dasharray:none;stroke-dashoffset:0;stroke-opacity:1;enable-background:new" />
      <path
         inkscape:connector-curvature="0"
         id="path6184"
         d="m 84.070166,144.70666 c 0,0 7.05789,16.60181 12.173411,21.64626 0,0 -3.452001,9.45967 -1.9376,16.87662 2.737591,13.4077 6.463013,13.44209 10.088013,22.71463 4.66436,11.93117 1.72212,9.7612 -4.19491,12.73379 -8.210554,1.44317 -6.386963,4.9572 -2.770903,8.10591 3.392023,3.09858 7.465743,1.78263 14.233603,0.96555 7.88426,-0.95187 12.9117,-1.31535 13.27666,-10.31948 0.47788,-11.79025 -1.67206,-7.51469 -0.0692,-21.36734 1.25829,-8.96752 6.92015,-18.36244 9.01606,-25.3125 2.09592,-6.95008 3.08561,-13.41566 2.83867,-17.89344 -0.49389,-8.95554 -21.39188,-19.06938 -32.77608,-23.24054 -17.494511,3.08446 -19.910292,-3.14086 -19.877722,15.09054 z"
         style="display:inline;opacity:1;fill:#ff82bc;fill-opacity:1;fill-rule:evenodd;stroke:#ffffff;stroke-width:1.85208333;stroke-linecap:round;stroke-linejoin:round;stroke-miterlimit:4;stroke-dasharray:none;stroke-dashoffset:0;stroke-opacity:1;enable-background:new"
         sodipodi:nodetypes="ccssccsscsccc" />
      <path
         inkscape:connector-curvature="0"
         id="path6186"
         d="m 113.14219,119.6884 c -0.13363,-0.8018 -9.75534,-29.533277 -16.169813,-28.731465 -6.414461,0.80181 -3.875411,22.584275 -4.00903,24.187885 -0.133631,1.60362 -8.95354,11.22532 -11.8935,12.02713 -2.939971,0.8018 -5.479021,3.8754 -7.21628,6.54811 -1.737239,2.67268 -4.543571,4.27632 -5.879921,4.94448 -1.33636,0.66818 -5.078129,10.82443 -6.548109,12.29441 -1.46999,1.46998 -3.60813,3.74178 -0.8018,4.27632 2.80633,0.53453 6.949,1.73724 8.81989,1.46998 1.870889,-0.26728 11.893499,-6.94902 16.169809,-10.82443 4.276312,-3.87541 19.911574,-12.96257 22.584264,-16.57072 2.6727,-3.60813 5.7463,-5.07811 4.94449,-9.6217 z"
         style="display:inline;opacity:1;fill:#dc82bc;fill-opacity:1;fill-rule:evenodd;stroke:#ffffff;stroke-width:0;stroke-linecap:round;stroke-linejoin:round;stroke-miterlimit:4;stroke-dasharray:none;stroke-dashoffset:0;stroke-opacity:1;enable-background:new" />
      <path
         style="opacity:1;fill:none;fill-opacity:1;fill-rule:evenodd;stroke:#ffffff;stroke-width:1.85208333;stroke-linecap:round;stroke-linejoin:round;stroke-miterlimit:4;stroke-dasharray:none;stroke-dashoffset:0;stroke-opacity:1"
         d="m 107.34524,131.06845 c 0,0 -20.883189,14.07961 -22.017116,15.96949"
         id="path7575"
         inkscape:connector-curvature="0" />
    </g>
    <g
       transform="matrix(-0.5416384,0,0,0.5416384,353.91983,62.856103)"
       id="g7624"
       style="display:inline">
      <path
         inkscape:connector-curvature="0"
         id="path7612"
         d="m 88.048867,153.20728 c 0,0 -7.10743,10.58776 -8.686649,17.83632 -2.854812,13.10323 0.471189,14.60919 0.0493,24.35687 -0.542901,12.54254 -2.321251,9.43226 -8.802582,9.75414 -7.931739,-1.95732 -7.688399,1.91487 -5.693569,6.16935 1.813851,4.12083 5.986791,4.55418 12.377341,6.50149 7.444708,2.26855 12.095469,3.93337 15.987919,-3.99385 5.096841,-10.38008 1.476581,-7.39857 8.398573,-19.18205 4.67877,-7.54067 13.47433,-13.72085 18.10515,-19.1213 4.63082,-5.40046 8.07814,-10.80465 9.62978,-14.91652 -8.04119,-29.91667 -57.438314,-48.59811 -41.365263,-7.40445 z"
         style="display:inline;opacity:1;fill:#5f4dbc;fill-opacity:1;fill-rule:evenodd;stroke:#ffffff;stroke-width:0;stroke-linecap:round;stroke-linejoin:round;stroke-miterlimit:4;stroke-dasharray:none;stroke-dashoffset:0;stroke-opacity:1;enable-background:new"
         sodipodi:nodetypes="cssccsscscc" />
      <path
         style="display:inline;opacity:1;fill:#5f4dbc;fill-opacity:1;fill-rule:evenodd;stroke:none;stroke-width:0;stroke-linecap:round;stroke-linejoin:round;stroke-miterlimit:4;stroke-dasharray:none;stroke-dashoffset:0;stroke-opacity:1;enable-background:new"
         d="m 91.912887,93.351795 c 0,0 -13.48554,7.755155 -16.849119,10.807355 -3.36359,3.05221 -4.889582,14.10855 -8.626922,14.66921 -3.737339,0.56063 -12.021799,0.52956 -14.419939,1.52623 -2.398116,0.99665 -11.211906,14.42008 -1.05877,14.17081 10.15315,-0.24925 48.616721,-2.83466 51.450843,-5.17055 2.83414,-2.33587 7.66118,-38.089937 4.2664,-39.491406 -3.39477,-1.401469 -14.762493,3.488351 -14.762493,3.488351 z"
         id="path7614"
         inkscape:connector-curvature="0" />
      <path
         style="display:inline;opacity:1;fill:#5f92bc;fill-opacity:1;fill-rule:evenodd;stroke:#ffffff;stroke-width:1.85208333;stroke-linecap:round;stroke-linejoin:round;stroke-miterlimit:4;stroke-dasharray:none;stroke-dashoffset:0;stroke-opacity:1;enable-background:new"
         d="m 136.72317,152.98171 c 0.55613,-1.11228 -9.92991,-35.18653 -8.81764,-43.52854 1.11226,-8.34202 3.35499,-19.523747 -5.26509,-33.705178 -8.62008,-14.18143 -10.84461,-26.972522 -21.1331,-32.255796 0,0 -1.682382,-5.584001 -3.449103,-7.344929 -5.404231,-5.496766 -8.498041,2.117668 -11.061001,2.176829 -2.797559,0.06458 -9.403689,0.719024 -15.52116,5.724233 -6.117468,5.00521 -5.76988,6.812649 -10.844619,8.272501 -5.07473,1.459854 -10.34402,2.683809 -7.0212,6.117481 1.94647,4.171003 0.83421,6.465057 7.0212,5.074727 0,0 -4.24035,1.25072 -3.5106,2.224532 1.65046,2.202463 2.09514,4.56122 11.795029,3.579093 9.39669,-0.951426 14.809121,7.045054 14.67009,10.937996 -0.139049,3.892941 -5.70797,13.009975 -6.66373,23.537401 -2.572919,17.23533 5.84309,25.69846 7.14792,40.9146 l 22.998514,-10.84261 c 0,0 25.34445,9.24627 29.65449,19.11766 z"
         id="path7616"
         inkscape:connector-curvature="0"
         sodipodi:nodetypes="ccsccsssccssscccc" />
      <path
         sodipodi:nodetypes="ccssccsscsccc"
         style="display:inline;opacity:1;fill:#ff82bc;fill-opacity:1;fill-rule:evenodd;stroke:#ffffff;stroke-width:1.85208333;stroke-linecap:round;stroke-linejoin:round;stroke-miterlimit:4;stroke-dasharray:none;stroke-dashoffset:0;stroke-opacity:1;enable-background:new"
         d="m 84.070166,144.70666 c 0,0 7.05789,16.60181 12.173411,21.64626 0,0 -3.452001,9.45967 -1.9376,16.87662 2.737591,13.4077 6.463013,13.44209 10.088013,22.71463 4.66436,11.93117 1.72212,9.7612 -4.19491,12.73379 -8.210554,1.44317 -6.386963,4.9572 -2.770903,8.10591 3.392023,3.09858 7.465743,1.78263 14.233603,0.96555 7.88426,-0.95187 12.9117,-1.31535 13.27666,-10.31948 0.47788,-11.79025 -1.67206,-7.51469 -0.0692,-21.36734 1.25829,-8.96752 6.92015,-18.36244 9.01606,-25.3125 2.09592,-6.95008 3.08561,-13.41566 2.83867,-17.89344 -0.49389,-8.95554 -21.39188,-19.06938 -32.77608,-23.24054 -17.494511,3.08446 -19.910292,-3.14086 -19.877722,15.09054 z"
         id="path7618"
         inkscape:connector-curvature="0" />
      <path
         style="display:inline;opacity:1;fill:#dc82bc;fill-opacity:1;fill-rule:evenodd;stroke:#ffffff;stroke-width:0;stroke-linecap:round;stroke-linejoin:round;stroke-miterlimit:4;stroke-dasharray:none;stroke-dashoffset:0;stroke-opacity:1;enable-background:new"
         d="m 113.14219,119.6884 c -0.13363,-0.8018 -9.75534,-29.533277 -16.169813,-28.731465 -6.414461,0.80181 -3.875411,22.584275 -4.00903,24.187885 -0.133631,1.60362 -8.95354,11.22532 -11.8935,12.02713 -2.939971,0.8018 -5.479021,3.8754 -7.21628,6.54811 -1.737239,2.67268 -4.543571,4.27632 -5.879921,4.94448 -1.33636,0.66818 -5.078129,10.82443 -6.548109,12.29441 -1.46999,1.46998 -3.60813,3.74178 -0.8018,4.27632 2.80633,0.53453 6.949,1.73724 8.81989,1.46998 1.870889,-0.26728 11.893499,-6.94902 16.169809,-10.82443 4.276312,-3.87541 19.911574,-12.96257 22.584264,-16.57072 2.6727,-3.60813 5.7463,-5.07811 4.94449,-9.6217 z"
         id="path7620"
         inkscape:connector-curvature="0" />
      <path
         inkscape:connector-curvature="0"
         id="path7622"
         d="m 107.34524,131.06845 c 0,0 -20.883189,14.07961 -22.017116,15.96949"
         style="opacity:1;fill:none;fill-opacity:1;fill-rule:evenodd;stroke:#ffffff;stroke-width:1.85208333;stroke-linecap:round;stroke-linejoin:round;stroke-miterlimit:4;stroke-dasharray:none;stroke-dashoffset:0;stroke-opacity:1" />
    </g>
  </g>
  <g
     transform="translate(0,34.925)"
     style="display:inline"
     inkscape:label="text"
     id="layer9"
     inkscape:groupmode="layer">
    <g
       id="flowRoot7719"
       style="font-style:normal;font-weight:normal;font-size:40px;line-height:1.25;font-family:sans-serif;letter-spacing:0px;word-spacing:0px;display:inline;fill:#000000;fill-opacity:1;stroke:#ffffff;stroke-width:3.20001411;stroke-miterlimit:4;stroke-dasharray:none;stroke-opacity:1"
       transform="matrix(0.19252721,0,0,0.19252721,77.318507,10.602126)"
       aria-label="BEARJAM">
      <path
         inkscape:connector-curvature="0"
         id="path16190"
         style="font-style:normal;font-variant:normal;font-weight:normal;font-stretch:normal;font-size:96px;font-family:Modak;-inkscape-font-specification:Modak;text-align:center;letter-spacing:3.84001708px;text-anchor:middle;fill:#000000;fill-opacity:1;stroke:#ffffff;stroke-width:3.20001411;stroke-miterlimit:4;stroke-dasharray:none;stroke-opacity:1"
         d="m 509.96237,57.018179 q 0.1875,0.140625 1.07813,0.140625 0.89062,0 1.35937,-0.609375 0.46875,-0.609375 0.46875,-2.15625 v -0.890625 q 0,-1.734375 -0.42187,-2.484375 -0.375,-0.75 -1.3125,-0.75 -0.89063,0 -1.21875,0.1875 0.0469,0.234375 0.0469,0.796875 z m 0,-17.671875 q 0.1875,0.140625 1.07813,0.140625 0.89062,0 1.35937,-0.703125 0.46875,-0.703125 0.46875,-2.296875 v -0.28125 q 0,-1.6875 -0.42187,-2.390625 -0.375,-0.75 -1.3125,-0.75 -0.89063,0 -1.21875,0.1875 0.0469,0.234375 0.0469,0.796875 z M 484.50925,21.299429 q 0,-1.078125 1.78125,-2.4375 3.75,-2.859375 13.21875,-4.453125 4.92187,-0.796875 10.82812,-0.796875 14.0625,0 21.28125,5.4375 6.32813,4.78125 6.32813,12.5625 0,2.8125 -0.98438,5.53125 -0.98437,2.671875 -2.8125,4.03125 -2.48437,-1.265625 -4.78125,-1.265625 -1.07812,0 -1.64062,0.421875 -0.5625,0.421875 -0.5625,1.546875 6.89062,0.28125 10.73437,4.96875 3.42188,4.265625 3.42188,10.59375 0,9.796875 -8.20313,14.25 -7.6875,4.171875 -23.15625,4.171875 -10.82812,0 -15.89062,-0.65625 -5.0625,-0.703125 -7.3125,-3.234375 -2.25,-2.53125 -2.25,-7.6875 z" />
      <path
         inkscape:connector-curvature="0"
         id="path16192"
         style="font-style:normal;font-variant:normal;font-weight:normal;font-stretch:normal;font-size:96px;font-family:Modak;-inkscape-font-specification:Modak;text-align:center;letter-spacing:3.84001708px;text-anchor:middle;fill:#000000;fill-opacity:1;stroke:#ffffff;stroke-width:3.20001411;stroke-miterlimit:4;stroke-dasharray:none;stroke-opacity:1"
         d="m 568.50551,14.877554 h 27.04688 q 1.35937,2.25 2.01562,4.921875 0.65625,2.625 0.65625,4.734375 0,4.734375 -1.875,7.125 -1.82812,2.390625 -5.15625,2.390625 h -18.89062 q -1.73438,0 -1.73438,1.359375 v 0.375 q 0,0.28125 0.0937,0.375 h 22.40625 q 0.84375,1.453125 1.45313,3.65625 0.5625,2.390625 0.5625,4.265625 0,5.578125 -2.0625,8.71875 h -10.17188 q -7.125,0 -9.65625,0.5625 -2.53125,0.515625 -3.14062,0.890625 -0.60938,0.421875 -0.60938,1.078125 0,0.65625 0.65625,1.03125 2.4375,-0.796875 5.10938,-1.125 3.51562,-0.328125 7.64062,-0.328125 h 13.17188 q 2.85937,4.03125 2.85937,9.703125 0,3.1875 -0.79687,6.09375 -0.79688,2.90625 -2.39063,4.6875 h -35.10937 q -5.8125,0 -9.32813,-2.8125 -3.84375,-3 -3.84375,-8.8125 V 19.190054 q 0,-2.25 5.15625,-3.28125 5.15625,-1.03125 15.9375,-1.03125 z" />
      <path
         inkscape:connector-curvature="0"
         id="path16194"
         style="font-style:normal;font-variant:normal;font-weight:normal;font-stretch:normal;font-size:96px;font-family:Modak;-inkscape-font-specification:Modak;text-align:center;letter-spacing:3.84001708px;text-anchor:middle;fill:#000000;fill-opacity:1;stroke:#ffffff;stroke-width:3.20001411;stroke-miterlimit:4;stroke-dasharray:none;stroke-opacity:1"
         d="m 634.36115,44.549429 q 0.375,0.375 1.17188,0.375 0.79687,0 1.35937,-0.328125 -1.21875,-7.125 -1.64062,-8.4375 -0.51563,-1.359375 -1.54688,-1.359375 -0.46875,0 -1.125,0.28125 z m -9.28125,14.0625 q -0.46875,0.65625 -0.46875,1.21875 0,1.359375 2.53125,2.296875 2.57813,0.890625 6.23438,1.125 0.60937,6.75 1.3125,7.6875 -0.89063,1.734375 -4.92188,3.515625 -4.03125,1.734375 -9.09375,1.734375 -6.70312,0 -11.48437,-2.859375 -4.78125,-2.90625 -4.78125,-7.453125 0,-1.21875 0.23437,-2.15625 l 9.98438,-44.625 q 3.75,-2.390625 8.95312,-3.75 5.20313,-1.359375 10.82813,-1.359375 8.0625,0 13.78125,2.71875 6.51562,3.09375 7.92187,8.953125 l 10.6875,44.203125 q -4.875,6.328125 -15.89062,6.328125 -5.34375,0 -9.04688,-1.921875 -3.70312,-1.921875 -4.3125,-5.484375 l -1.03125,-5.71875 q 2.8125,-0.04687 5.4375,-1.078125 2.625,-1.03125 2.625,-2.15625 0,-0.75 -0.60937,-1.21875 -1.78125,1.265625 -4.35938,1.921875 -2.57812,0.65625 -4.78125,0.65625 -6.32812,0 -9.75,-2.578125 z" />
      <path
         inkscape:connector-curvature="0"
         id="path16196"
         style="font-style:normal;font-variant:normal;font-weight:normal;font-stretch:normal;font-size:96px;font-family:Modak;-inkscape-font-specification:Modak;text-align:center;letter-spacing:3.84001708px;text-anchor:middle;fill:#000000;fill-opacity:1;stroke:#ffffff;stroke-width:3.20001411;stroke-miterlimit:4;stroke-dasharray:none;stroke-opacity:1"
         d="m 698.29492,42.018179 q 0.1875,0.140625 1.07813,0.140625 0.89062,0 1.35937,-0.703125 0.46875,-0.703125 0.46875,-2.296875 v -1.6875 q 0,-1.6875 -0.42187,-2.390625 -0.375,-0.75 -1.3125,-0.75 -0.89063,0 -1.21875,0.1875 0.0469,0.234375 0.0469,0.796875 z m 24.1875,10.6875 8.10938,8.296875 q -0.84375,7.3125 -4.64063,11.25 -3.75,3.9375 -10.40625,3.9375 -5.01562,0 -8.71875,-2.390625 -4.73437,-3 -7.07812,-9.5625 l -1.6875,-4.59375 q -1.96875,-0.04687 -4.96875,-0.515625 -0.375,0.375 -0.375,1.03125 0,1.265625 3.79687,1.5 l 2.67188,6.75 v 3.984375 q -5.39063,3.796875 -13.82813,3.796875 -6.04687,0 -9.65625,-2.484375 -3.60937,-2.484375 -3.60937,-7.21875 v -44.53125 q 0,-2.0625 3.79687,-3.984375 3.79688,-1.96875 9.9375,-3.140625 6.14063,-1.21875 12.28125,-1.21875 14.0625,0 21.98438,5.765625 8.34375,6.046875 8.34375,17.015625 0,6.28125 -3.5625,10.78125 -3.51563,4.453125 -8.90625,6.1875 0,1.5 1.78125,1.5 1.82812,0 4.73437,-2.15625 z" />
      <path
         inkscape:connector-curvature="0"
         id="path16198"
         style="font-style:normal;font-variant:normal;font-weight:normal;font-stretch:normal;font-size:96px;font-family:Modak;-inkscape-font-specification:Modak;text-align:center;letter-spacing:3.84001708px;text-anchor:middle;fill:#000000;fill-opacity:1;stroke:#ffffff;stroke-width:3.20001411;stroke-miterlimit:4;stroke-dasharray:none;stroke-opacity:1"
         d="m 780.83806,53.924429 q 0,9.890625 -6.28125,16.078125 -6.65625,6.65625 -18.375,6.65625 -6.70313,0 -12.70313,-3.46875 -4.59375,-2.625 -6.98437,-6.046875 -0.46875,-2.859375 -0.46875,-5.203125 0,-7.640625 4.64062,-11.71875 3.75,-3.28125 9.23438,-3.28125 4.17187,0 7.59375,2.203125 3.46875,2.34375 5.10937,6.46875 1.5,0 1.5,-1.546875 0,-0.796875 -0.70312,-2.109375 -0.65625,-1.3125 -1.92188,-2.625 -3.32812,-3.421875 -8.01562,-4.21875 v -27 q 2.34375,-1.734375 5.90625,-2.90625 3.5625,-1.171875 8.10937,-1.171875 4.54688,0 8.20313,1.59375 5.15625,2.34375 5.15625,7.03125 z" />
      <path
         inkscape:connector-curvature="0"
         id="path16200"
         style="font-style:normal;font-variant:normal;font-weight:normal;font-stretch:normal;font-size:96px;font-family:Modak;-inkscape-font-specification:Modak;text-align:center;letter-spacing:3.84001708px;text-anchor:middle;fill:#000000;fill-opacity:1;stroke:#ffffff;stroke-width:3.20001411;stroke-miterlimit:4;stroke-dasharray:none;stroke-opacity:1"
         d="m 815.56869,44.549429 q 0.375,0.375 1.17188,0.375 0.79687,0 1.35937,-0.328125 -1.21875,-7.125 -1.64062,-8.4375 -0.51563,-1.359375 -1.54688,-1.359375 -0.46875,0 -1.125,0.28125 z m -9.28125,14.0625 q -0.46875,0.65625 -0.46875,1.21875 0,1.359375 2.53125,2.296875 2.57813,0.890625 6.23438,1.125 0.60937,6.75 1.3125,7.6875 -0.89063,1.734375 -4.92188,3.515625 -4.03125,1.734375 -9.09375,1.734375 -6.70312,0 -11.48437,-2.859375 -4.78125,-2.90625 -4.78125,-7.453125 0,-1.21875 0.23437,-2.15625 l 9.98438,-44.625 q 3.75,-2.390625 8.95312,-3.75 5.20313,-1.359375 10.82813,-1.359375 8.0625,0 13.78125,2.71875 6.51562,3.09375 7.92187,8.953125 l 10.6875,44.203125 q -4.875,6.328125 -15.89062,6.328125 -5.34375,0 -9.04688,-1.921875 -3.70312,-1.921875 -4.3125,-5.484375 l -1.03125,-5.71875 q 2.8125,-0.04687 5.4375,-1.078125 2.625,-1.03125 2.625,-2.15625 0,-0.75 -0.60937,-1.21875 -1.78125,1.265625 -4.35938,1.921875 -2.57812,0.65625 -4.78125,0.65625 -6.32812,0 -9.75,-2.578125 z" />
      <path
         inkscape:connector-curvature="0"
         id="path16202"
         style="font-style:normal;font-variant:normal;font-weight:normal;font-stretch:normal;font-size:96px;font-family:Modak;-inkscape-font-specification:Modak;text-align:center;letter-spacing:3.84001708px;text-anchor:middle;fill:#000000;fill-opacity:1;stroke:#ffffff;stroke-width:3.20001411;stroke-miterlimit:4;stroke-dasharray:none;stroke-opacity:1"
         d="m 905.98685,76.190054 q -6.42188,0 -10.07813,-2.109375 -3.9375,-2.203125 -4.26562,-6.234375 l -0.42188,-4.40625 q 4.3125,-1.03125 7.26563,-5.34375 0.79687,-1.21875 0.79687,-2.109375 0,-1.21875 -1.21875,-1.21875 h -0.14062 q -0.0469,0.04687 -0.1875,0.04687 -3.28125,6.890625 -10.64063,6.890625 -3.75,0 -6.42187,-1.640625 -2.625,-1.640625 -4.82813,-5.671875 h -0.28125 q -1.26562,0 -1.26562,1.078125 0,0.75 0.5625,1.6875 1.875,3.140625 4.6875,4.921875 2.20312,1.5 4.64062,1.78125 l -0.375,8.859375 q -2.8125,1.828125 -5.95312,2.625 -3.09375,0.84375 -8.85938,0.84375 -5.71875,0 -10.21875,-2.25 -5.53125,-2.765625 -5.53125,-7.6875 0,-6.140625 2.4375,-30.328125 1.3125,-12.609375 2.10938,-17.625 4.82812,-4.3125 14.25,-4.3125 6.84375,0 11.34375,2.53125 l 2.57812,8.625 -1.64062,6.890625 q -0.1875,0.703125 -0.1875,1.359375 0,1.640625 1.875,1.6875 l 4.45312,-18.515625 q 1.92188,-1.03125 5.01563,-1.78125 3.09375,-0.796875 6.75,-0.796875 6.84375,0 10.125,2.34375 3.32812,2.296875 3.9375,7.78125 0.14062,1.03125 0.42187,3.421875 4.26563,36.65625 4.26563,43.171875 -5.20313,5.484375 -15,5.484375 z" />
    </g>
    <flowRoot
       transform="matrix(0.26458333,0,0,0.26458333,5.3453895,-2.9399649)"
       style="font-style:normal;font-weight:normal;font-size:40px;line-height:1.25;font-family:sans-serif;letter-spacing:0px;word-spacing:0px;display:inline;fill:#000000;fill-opacity:1;stroke:none"
       id="flowRoot15365"
       xml:space="preserve"><flowRegion
         id="flowRegion15367"><rect
           y="256.86282"
           x="547.50262"
           height="182.83762"
           width="271.73102"
           id="rect15369" /></flowRegion><flowPara
         style="font-style:normal;font-variant:normal;font-weight:normal;font-stretch:normal;font-size:24px;font-family:'Gangster Grotesk Regular';-inkscape-font-specification:'Gangster Grotesk Regular, '"
         id="flowPara15371" /></flowRoot>    <path
       inkscape:connector-curvature="0"
       id="rect15353"
       d="m 170.70814,38.524688 c 28.11972,0 56.23943,0 84.35914,0 0,20.508047 0,41.016099 0,61.524132 -28.11971,0 -56.23942,0 -84.35914,0 0,-20.508033 0,-41.016085 0,-61.524132 z"
       style="display:inline;opacity:1;fill:#cccccc;fill-opacity:0.9901962;fill-rule:evenodd;stroke:none;stroke-width:0.82013768;stroke-linecap:round;stroke-linejoin:round;stroke-miterlimit:4;stroke-dasharray:none;stroke-dashoffset:0;stroke-opacity:0.50490196" />
    <path
       style="display:inline;opacity:1;fill:#cccccc;fill-opacity:0.9901962;fill-rule:evenodd;stroke:none;stroke-width:0.48191464;stroke-linecap:round;stroke-linejoin:round;stroke-miterlimit:4;stroke-dasharray:none;stroke-dashoffset:0;stroke-opacity:0.50490196"
       d="m 170.70814,109.0414 c 28.11972,0 56.23943,0 84.35914,0 0,7.08095 0,14.16188 0,21.24282 -28.11971,0 -56.23942,0 -84.35914,0 0,-7.08094 0,-14.16187 0,-21.24282 z"
       id="path15442"
       inkscape:connector-curvature="0" />
  </g>
  <g
     transform="translate(0,34.925)"
     style="display:inline"
     inkscape:label="decor"
     id="layer10"
     inkscape:groupmode="layer">
    <rect
       style="opacity:1;fill:#feffff;fill-opacity:1;fill-rule:evenodd;stroke:none;stroke-width:0.51655269;stroke-miterlimit:4;stroke-dasharray:none;stroke-opacity:1"
       id="rect2010-6"
       width="112.70814"
       height="141.40697"
       x="555.69318"
       y="15.432443"
       ry="56.354065" />
    <g
       id="g8802">
      <path
         inkscape:connector-curvature="0"
         id="path9237"
         d="m 212.97639,-27.59516 0.0817,29.5293909"
         style="opacity:0.51000001;fill:none;stroke:#000000;stroke-width:0.49700934;stroke-linecap:round;stroke-linejoin:round;stroke-miterlimit:4;stroke-dasharray:none;stroke-opacity:1"
         sodipodi:nodetypes="cc" />
      <path
         style="opacity:0.51000001;fill:none;stroke:#000000;stroke-width:0.49700934;stroke-linecap:round;stroke-linejoin:round;stroke-miterlimit:4;stroke-dasharray:none;stroke-opacity:1"
         d="M 202.12611,-24.662706 213.05819,1.9342309"
         id="path9239"
         inkscape:connector-curvature="0"
         sodipodi:nodetypes="cc" />
      <path
         inkscape:connector-curvature="0"
         id="path9241"
         d="M 195.42808,-18.138149 212.79539,1.9624155"
         style="opacity:0.51000001;fill:none;stroke:#000000;stroke-width:0.49700934;stroke-linecap:round;stroke-linejoin:round;stroke-miterlimit:4;stroke-dasharray:none;stroke-opacity:1"
         sodipodi:nodetypes="cc" />
      <path
         style="opacity:0.51000001;fill:none;stroke:#000000;stroke-width:0.49700934;stroke-linecap:round;stroke-linejoin:round;stroke-miterlimit:4;stroke-dasharray:none;stroke-opacity:1"
         d="M 185.98764,-12.934065 212.75935,1.9667104"
         id="path9243"
         inkscape:connector-curvature="0"
         sodipodi:nodetypes="cc" />
      <path
         inkscape:connector-curvature="0"
         id="path9245"
         d="m 182.12879,-2.9518031 30.9294,4.886034"
         style="opacity:0.51000001;fill:none;stroke:#000000;stroke-width:0.49700934;stroke-linecap:round;stroke-linejoin:round;stroke-miterlimit:4;stroke-dasharray:none;stroke-opacity:1"
         sodipodi:nodetypes="cc" />
      <path
         style="opacity:0.51000001;fill:none;stroke:#000000;stroke-width:0.49700934;stroke-linecap:round;stroke-linejoin:round;stroke-miterlimit:4;stroke-dasharray:none;stroke-opacity:1"
         d="m 213.05819,1.9342309 30.35989,-5.1286292"
         id="path9247"
         inkscape:connector-curvature="0"
         sodipodi:nodetypes="cc" />
      <path
         inkscape:connector-curvature="0"
         id="path9249"
         d="M 212.64338,2.0254671 239.68166,-13.334985"
         style="opacity:0.51000001;fill:none;stroke:#000000;stroke-width:0.49700934;stroke-linecap:round;stroke-linejoin:round;stroke-miterlimit:4;stroke-dasharray:none;stroke-opacity:1"
         sodipodi:nodetypes="cc" />
      <path
         style="opacity:0.51000001;fill:none;stroke:#000000;stroke-width:0.49700934;stroke-linecap:round;stroke-linejoin:round;stroke-miterlimit:4;stroke-dasharray:none;stroke-opacity:1"
         d="M 212.75935,1.9667104 229.51877,-17.647617"
         id="path9251"
         inkscape:connector-curvature="0"
         sodipodi:nodetypes="cc" />
      <path
         inkscape:connector-curvature="0"
         id="path9253"
         d="M 213.05819,1.9342309 222.4436,-24.560429"
         style="opacity:0.51000001;fill:none;stroke:#000000;stroke-width:0.49700934;stroke-linecap:round;stroke-linejoin:round;stroke-miterlimit:4;stroke-dasharray:none;stroke-opacity:1"
         sodipodi:nodetypes="cc" />
      <path
         sodipodi:nodetypes="cccc"
         d="m 218.28932,-25.417108 -1.61053,6.992151 m -0.46628,2.485766 -3.15432,17.8734219"
         style="opacity:0.51999996;fill:none;stroke:#000000;stroke-width:0.49700934;stroke-linecap:round;stroke-linejoin:round;stroke-miterlimit:4;stroke-dasharray:none;stroke-opacity:1"
         id="path9255"
         inkscape:connector-curvature="0" />
      <path
         sodipodi:nodetypes="cccc"
         inkscape:connector-curvature="0"
         id="path9257"
         style="opacity:0.51999996;fill:none;stroke:#000000;stroke-width:0.49700934;stroke-linecap:round;stroke-linejoin:round;stroke-miterlimit:4;stroke-dasharray:none;stroke-opacity:1"
         d="m 207.37462,-25.722162 1.71116,7.27247 m 0.44705,2.488741 3.52536,17.8951819" />
      <path
         sodipodi:nodetypes="cccc"
         d="m 199.82437,-19.428607 2.28399,3.449732 m 1.13917,2.191538 9.54786,15.7497525"
         style="opacity:0.51999996;fill:none;stroke:#000000;stroke-width:0.49700934;stroke-linecap:round;stroke-linejoin:round;stroke-miterlimit:4;stroke-dasharray:none;stroke-opacity:1"
         id="path9259"
         inkscape:connector-curvature="0" />
      <path
         sodipodi:nodetypes="cccc"
         inkscape:connector-curvature="0"
         id="path9261"
         style="opacity:0.51999996;fill:none;stroke:#000000;stroke-width:0.49700934;stroke-linecap:round;stroke-linejoin:round;stroke-miterlimit:4;stroke-dasharray:none;stroke-opacity:1"
         d="m 193.31771,-13.499279 2.78868,2.188756 m 2.00827,1.6300014 14.94353,11.6147525" />
      <path
         d="m 188.36945,-6.3911729 3.91602,1.383464 m 2.46788,0.8718634 18.30484,6.0700764"
         style="opacity:0.51999996;fill:none;stroke:#000000;stroke-width:0.49700934;stroke-linecap:round;stroke-linejoin:round;stroke-miterlimit:4;stroke-dasharray:none;stroke-opacity:1"
         id="path9263"
         inkscape:connector-curvature="0"
         sodipodi:nodetypes="cccc" />
      <path
         d="m 213.05819,1.9342309 17.07483,-5.6870279 m 3.38633,-1.1710755 3.78202,-1.3079091"
         style="opacity:0.51999996;fill:none;stroke:#000000;stroke-width:0.49700934;stroke-linecap:round;stroke-linejoin:round;stroke-miterlimit:4;stroke-dasharray:none;stroke-opacity:1"
         id="path9267"
         inkscape:connector-curvature="0"
         sodipodi:nodetypes="cccc" />
      <path
         inkscape:connector-curvature="0"
         id="path9269"
         style="opacity:0.51999996;fill:none;stroke:#000000;stroke-width:0.49700934;stroke-linecap:round;stroke-linejoin:round;stroke-miterlimit:4;stroke-dasharray:none;stroke-opacity:1"
         d="m 213.05819,1.9342309 13.89714,-11.0175006 m 2.09622,-1.7107263 3.08855,-2.471161"
         sodipodi:nodetypes="cccc" />
      <path
         sodipodi:nodetypes="cccc"
         d="m 213.05819,1.9342309 9.01237,-14.9821499 m 1.14179,-2.485401 2.79558,-4.391701"
         style="opacity:0.51999996;fill:none;stroke:#000000;stroke-width:0.49700934;stroke-linecap:round;stroke-linejoin:round;stroke-miterlimit:4;stroke-dasharray:none;stroke-opacity:1"
         id="path9271"
         inkscape:connector-curvature="0" />
      <path
         sodipodi:nodetypes="cccc"
         inkscape:connector-curvature="0"
         id="path15345"
         style="opacity:0.51999996;fill:none;stroke:#000000;stroke-width:0.49700934;stroke-linecap:round;stroke-linejoin:round;stroke-miterlimit:4;stroke-dasharray:none;stroke-opacity:1"
         d="m 212.389,2.015927 17.99693,0.047729 m 3.58298,-0.031492 4.00163,-0.03517" />
      <path
         d="M 212.72551,2.015927 194.72858,2.063656 M 191.1456,2.032164 187.14397,1.996994"
         style="opacity:0.51999996;fill:none;stroke:#000000;stroke-width:0.49700934;stroke-linecap:round;stroke-linejoin:round;stroke-miterlimit:4;stroke-dasharray:none;stroke-opacity:1"
         id="path15347"
         inkscape:connector-curvature="0"
         sodipodi:nodetypes="cccc" />
      <path
         id="path8417"
         d="m 212.85237,-8.2179981 a 10.184343,10.24165 0 0 0 -10.18436,10.2416483 10.184343,10.24165 0 0 0 0.009,0.2667107 h 20.34615 a 10.184343,10.24165 0 0 0 0.0133,-0.2667107 10.184343,10.24165 0 0 0 -10.18436,-10.2416483 z"
         style="display:inline;opacity:1;fill:#cccccc;fill-opacity:0.9901962;fill-rule:evenodd;stroke:none;stroke-width:0.20425907;stroke-linecap:round;stroke-linejoin:round;stroke-miterlimit:4;stroke-dasharray:none;stroke-dashoffset:0;stroke-opacity:1"
         inkscape:connector-curvature="0" />
    </g>
    <g
       transform="matrix(1.1733577,0,0,1.1733577,0.73546685,-34.154662)"
       id="g16176"
       style="display:inline">
      <g
         id="g16165"
         transform="rotate(7.4984457,803.03764,-840.02509)">
        <path
           inkscape:connector-curvature="0"
           id="path1108"
           d="m 321.73808,266.03163 c 0,0 4.94448,-8.15172 10.28988,-9.6217 5.34538,-1.46998 11.75986,-4.54358 8.95353,-9.48807 -2.80633,-4.94448 -10.95806,0.80181 -10.95806,0.80181 0,0 7.34991,-4.14268 6.81537,-10.28988 -0.53454,-6.1472 -5.21173,-7.08264 -8.01806,-4.27631 -2.80633,2.80633 -4.00905,3.87541 -4.00905,3.87541 0,0 6.1472,-5.21176 5.34538,-10.69078 -0.8018,-5.47903 -6.28084,-6.54811 -8.95353,-2.27179 -2.67269,4.27631 -2.67269,4.00904 -2.67269,4.00904 0,0 5.61266,-12.2944 -4.14268,-11.22532 z"
           style="fill:#004c25;fill-opacity:1;stroke:none;stroke-width:0.79374999;stroke-linecap:round;stroke-linejoin:round;stroke-miterlimit:4;stroke-dasharray:none;stroke-opacity:1" />
        <path
           style="fill:#003120;fill-opacity:1;stroke:none;stroke-width:0.79374999;stroke-linecap:round;stroke-linejoin:round;stroke-miterlimit:4;stroke-dasharray:none;stroke-opacity:1"
           d="m 320.42765,266.07658 c 0,0 -6.95662,-6.5195 -12.50041,-6.49605 -5.54377,0.0235 -12.5489,-1.20967 -11.17742,-6.72714 1.37149,-5.51746 10.7693,-2.17806 10.7693,-2.17806 0,0 -8.19386,-2.01088 -9.33408,-8.07501 -1.14023,-6.06413 3.11241,-8.22428 6.57067,-6.27714 3.45826,1.94716 4.9044,2.65295 4.9044,2.65295 0,0 -7.32339,-3.36429 -8.02631,-8.85687 -0.70294,-5.49259 4.28595,-7.99733 8.01129,-4.59849 3.72531,3.39883 3.65336,3.14143 3.65336,3.14143 0,0 -8.71547,-10.32931 0.96749,-11.92617 z"
           id="path1276"
           inkscape:connector-curvature="0" />
        <path
           inkscape:connector-curvature="0"
           id="path1294"
           d="m 320.42765,266.07658 c 0,0 1.79742,8.51558 1.31043,-0.0449"
           style="opacity:1;fill:none;fill-opacity:1;fill-rule:evenodd;stroke:none;stroke-width:0.79374999;stroke-linecap:round;stroke-linejoin:round;stroke-miterlimit:4;stroke-dasharray:none;stroke-dashoffset:0;stroke-opacity:1" />
      </g>
      <path
         style="opacity:1;fill:#1c1c1c;fill-opacity:0.9901962;fill-rule:evenodd;stroke:none;stroke-width:0.79374999;stroke-linecap:round;stroke-linejoin:round;stroke-miterlimit:4;stroke-dasharray:none;stroke-dashoffset:0;stroke-opacity:0.50490196"
         d="m 181.51433,193.76382 c 0,0 -0.63453,5.24099 -1.30509,-0.12644 -0.67055,-5.36744 0.32989,-49.72271 0.32989,-49.72271 l 0.10579,0.13295 z"
         id="path16169"
         inkscape:connector-curvature="0" />
    </g>
  </g>
</svg>
