<?xml version="1.0" encoding="UTF-8" standalone="no"?>
<!-- Created with Inkscape (http://www.inkscape.org/) -->

<svg
   xmlns:dc="http://purl.org/dc/elements/1.1/"
   xmlns:cc="http://creativecommons.org/ns#"
   xmlns:rdf="http://www.w3.org/1999/02/22-rdf-syntax-ns#"
   xmlns:svg="http://www.w3.org/2000/svg"
   xmlns="http://www.w3.org/2000/svg"
   xmlns:sodipodi="http://sodipodi.sourceforge.net/DTD/sodipodi-0.dtd"
   xmlns:inkscape="http://www.inkscape.org/namespaces/inkscape"
   width="41.81382mm"
   height="89.822227mm"
   viewBox="0 0 41.81382 89.822225"
   version="1.1"
   id="svg4629"
   inkscape:version="0.92.3 (2405546, 2018-03-11)"
   sodipodi:docname="bear.svg">
  <defs
     id="defs4623" />
  <sodipodi:namedview
     id="base"
     pagecolor="#ffffff"
     bordercolor="#666666"
     borderopacity="1.0"
     inkscape:pageopacity="0.0"
     inkscape:pageshadow="2"
     inkscape:zoom="0.98994949"
     inkscape:cx="-86.649151"
     inkscape:cy="127.06713"
     inkscape:document-units="mm"
     inkscape:current-layer="layer1"
     showgrid="false"
     inkscape:window-width="1600"
     inkscape:window-height="845"
     inkscape:window-x="0"
     inkscape:window-y="27"
     inkscape:window-maximized="1"
     fit-margin-top="0"
     fit-margin-left="0"
     fit-margin-right="0"
     fit-margin-bottom="0" />
  <metadata
     id="metadata4626">
    <rdf:RDF>
      <cc:Work
         rdf:about="">
        <dc:format>image/svg+xml</dc:format>
        <dc:type
           rdf:resource="http://purl.org/dc/dcmitype/StillImage" />
        <dc:title />
      </cc:Work>
    </rdf:RDF>
  </metadata>
  <g
     inkscape:label="Layer 1"
     inkscape:groupmode="layer"
     id="layer1"
     transform="translate(-71.10542,-61.588946)">
    <g
       id="g11831"
       transform="matrix(-1,0,0,1,184.02466,0)">
      <path
         inkscape:connector-curvature="0"
         id="path6178"
         d="m 90.432955,116.54517 c 0,0 -3.280889,4.88746 -4.009879,8.2335 -1.317821,6.04863 0.217508,6.74381 0.02276,11.24347 -0.250611,5.78981 -1.071522,4.35406 -4.063395,4.50265 -3.661402,-0.90353 -3.549073,0.88393 -2.628231,2.84786 0.837299,1.90223 2.763586,2.10227 5.713554,3.00118 3.436581,1.04719 5.583438,1.8157 7.380247,-1.84362 2.352773,-4.79159 0.681611,-3.41528 3.876899,-8.8547 2.159786,-3.48088 6.21994,-6.33374 8.35759,-8.82666 2.13765,-2.49293 3.72898,-4.98758 4.44524,-6.88568 -3.71193,-13.80995 -26.514328,-22.433568 -19.094783,-3.418 z"
         style="display:inline;opacity:1;fill:#5f4dbc;fill-opacity:1;fill-rule:evenodd;stroke:#ffffff;stroke-width:0;stroke-linecap:round;stroke-linejoin:round;stroke-miterlimit:4;stroke-dasharray:none;stroke-dashoffset:0;stroke-opacity:1;enable-background:new"
         sodipodi:nodetypes="cssccsscscc" />
      <path
         style="display:inline;opacity:1;fill:#5f4dbc;fill-opacity:1;fill-rule:evenodd;stroke:none;stroke-width:0;stroke-linecap:round;stroke-linejoin:round;stroke-miterlimit:4;stroke-dasharray:none;stroke-dashoffset:0;stroke-opacity:1;enable-background:new"
         d="m 92.216641,88.915042 c 0,0 -6.225114,3.579889 -7.777789,4.988827 -1.552681,1.408943 -2.2571,6.512701 -3.982308,6.771511 -1.725209,0.2588 -5.549431,0.24445 -6.656446,0.70453 -1.107004,0.46007 -5.175573,6.65651 -0.488744,6.54145 4.686837,-0.11506 22.44216,-1.30852 23.750431,-2.3868 1.308279,-1.07827 3.536505,-17.582852 1.96943,-18.229789 -1.567073,-0.646938 -6.814574,1.610271 -6.814574,1.610271 z"
         id="path6180"
         inkscape:connector-curvature="0" />
      <path
         style="display:inline;opacity:1;fill:#5f92bc;fill-opacity:1;fill-rule:evenodd;stroke:none;stroke-width:0.85494763;stroke-linecap:round;stroke-linejoin:round;stroke-miterlimit:4;stroke-dasharray:none;stroke-dashoffset:0;stroke-opacity:1;enable-background:new"
         d="m 112.85159,116.39094 c 0.25671,-0.51345 -4.53368,-16.19249 -4.02024,-20.043277 0.51343,-3.850794 1.54871,-9.012436 -2.43044,-15.558783 -3.97915,-6.546347 -5.00602,-12.450894 -9.755335,-14.889728 0,0 -0.776611,-2.577653 -1.592154,-3.390522 -2.494669,-2.537384 -3.922815,0.977545 -5.105913,1.004855 -1.291393,0.02981 -4.340875,0.331912 -7.164785,2.642386 -2.823909,2.310475 -2.663458,3.144815 -5.006028,3.818703 -2.342567,0.673889 -4.774945,1.238884 -3.241085,2.823915 0.898518,1.925393 0.385083,2.984361 3.241085,2.342565 0,0 -1.957405,0.57735 -1.620543,1.026875 0.761876,1.016688 0.967146,2.105523 5.444751,1.652159 4.337644,-0.439191 6.836098,3.252096 6.771919,5.049133 -0.06419,1.797036 -2.634879,6.005587 -3.076071,10.865194 -1.187695,7.956075 2.697252,11.862765 3.29958,18.886755 l 10.616437,-5.0051 c 0,0 11.649242,4.2181 13.638822,8.77487 z"
         id="path6182"
         inkscape:connector-curvature="0"
         sodipodi:nodetypes="ccsccsssccssscccc" />
      <path
         sodipodi:nodetypes="ccssccsscscccc"
         style="display:inline;opacity:1;fill:#ff82bc;fill-opacity:1;fill-rule:evenodd;stroke:none;stroke-width:0.85494763;stroke-linecap:round;stroke-linejoin:round;stroke-miterlimit:4;stroke-dasharray:none;stroke-dashoffset:0;stroke-opacity:1;enable-background:new"
         d="m 88.596331,112.62117 c 0,0 2.974539,7.23841 5.619417,9.99222 0,0 -1.593492,4.36671 -0.894423,7.79048 1.263711,6.18918 2.983418,6.20506 4.656768,10.48539 2.153137,5.5076 0.794955,4.50591 -1.936429,5.8781 -3.790107,0.66618 -2.948312,2.28831 -1.279088,3.7418 1.565806,1.43035 3.446292,0.82289 6.570434,0.44571 3.63948,-0.4394 5.96022,-0.60718 6.12869,-4.76362 0.2206,-5.44254 -0.77185,-3.46888 -0.0319,-9.86346 0.58084,-4.13953 3.19443,-8.47636 4.16194,-11.6846 0.9675,-3.20826 1.42436,-6.19286 1.31037,-8.25987 -0.22799,-4.134 -8.77904,-8.41575 -14.034148,-10.34122 -7.225265,4.92011 -3.955565,1.94296 -10.271631,6.57907 z"
         id="path6184"
         inkscape:connector-curvature="0" />
      <path
         style="display:inline;opacity:1;fill:#dc52bc;fill-opacity:1;fill-rule:evenodd;stroke:#ffffff;stroke-width:0;stroke-linecap:round;stroke-linejoin:round;stroke-miterlimit:4;stroke-dasharray:none;stroke-dashoffset:0;stroke-opacity:1;enable-background:new"
         d="m 102.01639,101.07239 c -0.0617,-0.37012 -4.503207,-13.632976 -7.464217,-13.262849 -2.961005,0.370127 -1.788944,10.425218 -1.850625,11.165467 -0.06169,0.740254 -4.133079,5.181762 -5.490206,5.551892 -1.357132,0.37012 -2.529193,1.78894 -3.331136,3.0227 -0.801934,1.23375 -2.097376,1.97401 -2.714254,2.28244 -0.616883,0.30844 -2.344136,4.99671 -3.022699,5.67527 -0.678568,0.67857 -1.665563,1.72726 -0.370122,1.97401 1.295441,0.24675 3.207756,0.80194 4.071385,0.67857 0.863628,-0.12338 5.490206,-3.20777 7.46421,-4.99671 1.974006,-1.78895 9.191462,-5.98371 10.425213,-7.64928 1.233761,-1.66556 2.652571,-2.34413 2.282451,-4.44151 z"
         id="path6186"
         inkscape:connector-curvature="0" />
      <path
         id="path5202"
         inkscape:connector-curvature="0"
         d="m 89.17702,113.69732 c 0,0 -4.786667,-13.47451 -4.051675,-19.35444"
         style="opacity:1;fill:none;fill-opacity:0.9901962;fill-rule:evenodd;stroke:none;stroke-width:0.79374999;stroke-linecap:round;stroke-linejoin:round;stroke-miterlimit:4;stroke-dasharray:none;stroke-dashoffset:0;stroke-opacity:1" />
    </g>
  </g>
</svg>
