<?xml version="1.0" encoding="UTF-8" standalone="no"?>
<!-- Created with Inkscape (http://www.inkscape.org/) -->

<svg
   xmlns:dc="http://purl.org/dc/elements/1.1/"
   xmlns:cc="http://creativecommons.org/ns#"
   xmlns:rdf="http://www.w3.org/1999/02/22-rdf-syntax-ns#"
   xmlns:svg="http://www.w3.org/2000/svg"
   xmlns="http://www.w3.org/2000/svg"
   xmlns:xlink="http://www.w3.org/1999/xlink"
   xmlns:sodipodi="http://sodipodi.sourceforge.net/DTD/sodipodi-0.dtd"
   xmlns:inkscape="http://www.inkscape.org/namespaces/inkscape"
   width="345.60666"
   height="901.95001"
   viewBox="0 0 91.441765 238.64095"
   version="1.1"
   id="svg9467"
   inkscape:version="0.92.3 (2405546, 2018-03-11)"
   sodipodi:docname="moons.svg">
  <defs
     id="defs9461">
    <linearGradient
       inkscape:collect="always"
       id="linearGradient839">
      <stop
         style="stop-color:#cccccc;stop-opacity:1;"
         offset="0"
         id="stop835" />
      <stop
         style="stop-color:#cccccc;stop-opacity:0.55045873"
         offset="1"
         id="stop837" />
    </linearGradient>
    <linearGradient
       inkscape:collect="always"
       xlink:href="#linearGradient839"
       id="linearGradient845"
       x1="104.03636"
       y1="43.269741"
       x2="106.74465"
       y2="304.65933"
       gradientUnits="userSpaceOnUse" />
  </defs>
  <sodipodi:namedview
     id="base"
     pagecolor="#ffffff"
     bordercolor="#666666"
     borderopacity="1.0"
     inkscape:pageopacity="0.0"
     inkscape:pageshadow="2"
     inkscape:zoom="0.49497475"
     inkscape:cx="-40.670162"
     inkscape:cy="353.01995"
     inkscape:document-units="mm"
     inkscape:current-layer="layer1"
     showgrid="false"
     fit-margin-top="0"
     fit-margin-left="0"
     fit-margin-right="0"
     fit-margin-bottom="0"
     inkscape:window-width="1600"
     inkscape:window-height="845"
     inkscape:window-x="0"
     inkscape:window-y="27"
     inkscape:window-maximized="1"
     units="px" />
  <metadata
     id="metadata9464">
    <rdf:RDF>
      <cc:Work
         rdf:about="">
        <dc:format>image/svg+xml</dc:format>
        <dc:type
           rdf:resource="http://purl.org/dc/dcmitype/StillImage" />
        <dc:title></dc:title>
      </cc:Work>
    </rdf:RDF>
  </metadata>
  <g
     inkscape:label="Layer 1"
     inkscape:groupmode="layer"
     id="layer1"
     transform="translate(-58.600543,-24.977149)">
    <g
       id="g10028"
       style="fill:url(#linearGradient845);fill-opacity:1">
      <path
         style="display:inline;opacity:1;fill:url(#linearGradient845);fill-opacity:1;fill-rule:evenodd;stroke:none;stroke-width:0.30761537;stroke-linecap:round;stroke-linejoin:round;stroke-miterlimit:4;stroke-dasharray:none;stroke-dashoffset:0;stroke-opacity:1;enable-background:new"
         d="M 150.03396,24.977149 H 58.612443 a 45.720873,46.567635 0 0 0 -0.0119,0.238295 45.720873,46.567635 0 0 0 45.720887,46.567634 45.720873,46.567635 0 0 0 45.72088,-46.567634 45.720873,46.567635 0 0 0 -0.009,-0.238295 z"
         id="path7787"
         inkscape:connector-curvature="0" />
      <path
         style="display:inline;opacity:1;fill:url(#linearGradient845);fill-opacity:1;fill-rule:evenodd;stroke:none;stroke-width:0.18627053;stroke-linecap:round;stroke-linejoin:round;stroke-miterlimit:4;stroke-dasharray:none;stroke-dashoffset:0;stroke-opacity:1;enable-background:new"
         d="m 105.16817,254.06202 a 9.3135273,9.3135273 0 0 0 -9.313537,9.31352 9.3135273,9.3135273 0 0 0 0.009,0.24255 h 18.606437 a 9.3135273,9.3135273 0 0 0 0.0121,-0.24255 9.3135273,9.3135273 0 0 0 -9.31352,-9.31352 z"
         id="path4277"
         inkscape:connector-curvature="0" />
      <path
         inkscape:connector-curvature="0"
         style="display:inline;opacity:1;fill:url(#linearGradient845);fill-opacity:1;fill-rule:evenodd;stroke:none;stroke-width:0.74508214;stroke-linecap:round;stroke-linejoin:round;stroke-miterlimit:4;stroke-dasharray:none;stroke-dashoffset:0;stroke-opacity:1;enable-background:new"
         d="M 142.4224,121.80487 A 37.254109,37.254109 0 0 1 105.16829,159.05898 37.254109,37.254109 0 0 1 67.914183,121.80487 37.254109,37.254109 0 0 1 105.16829,84.550759 37.254109,37.254109 0 0 1 142.4224,121.80487 Z"
         id="path4279" />
      <path
         inkscape:connector-curvature="0"
         style="display:inline;opacity:1;fill:url(#linearGradient845);fill-opacity:1;fill-rule:evenodd;stroke:none;stroke-width:0.46567634;stroke-linecap:round;stroke-linejoin:round;stroke-miterlimit:4;stroke-dasharray:none;stroke-dashoffset:0;stroke-opacity:1;enable-background:new"
         d="m 128.45211,203.91336 a 23.283818,23.283818 0 0 1 -23.28382,23.28382 23.283818,23.283818 0 0 1 -23.283817,-23.28382 23.283818,23.283818 0 0 1 23.283817,-23.28382 23.283818,23.283818 0 0 1 23.28382,23.28382 z"
         id="path4281" />
    </g>
  </g>
</svg>
