<?xml version="1.0" encoding="UTF-8" standalone="no"?>
<!-- Created with Inkscape (http://www.inkscape.org/) -->

<svg
   xmlns:dc="http://purl.org/dc/elements/1.1/"
   xmlns:cc="http://creativecommons.org/ns#"
   xmlns:rdf="http://www.w3.org/1999/02/22-rdf-syntax-ns#"
   xmlns:svg="http://www.w3.org/2000/svg"
   xmlns="http://www.w3.org/2000/svg"
   xmlns:sodipodi="http://sodipodi.sourceforge.net/DTD/sodipodi-0.dtd"
   xmlns:inkscape="http://www.inkscape.org/namespaces/inkscape"
   width="84.649902mm"
   height="12.754329mm"
   viewBox="0 0 84.649902 12.754329"
   version="1.1"
   id="svg10687"
   inkscape:version="0.92.3 (2405546, 2018-03-11)"
   sodipodi:docname="text.svg">
  <defs
     id="defs10681" />
  <sodipodi:namedview
     id="base"
     pagecolor="#ffffff"
     bordercolor="#666666"
     borderopacity="1.0"
     inkscape:pageopacity="0.0"
     inkscape:pageshadow="2"
     inkscape:zoom="0.35"
     inkscape:cx="-331.46025"
     inkscape:cy="-370.18304"
     inkscape:document-units="mm"
     inkscape:current-layer="layer1"
     showgrid="false"
     fit-margin-top="0"
     fit-margin-left="0"
     fit-margin-right="0"
     fit-margin-bottom="0"
     inkscape:window-width="1600"
     inkscape:window-height="845"
     inkscape:window-x="0"
     inkscape:window-y="27"
     inkscape:window-maximized="1" />
  <metadata
     id="metadata10684">
    <rdf:RDF>
      <cc:Work
         rdf:about="">
        <dc:format>image/svg+xml</dc:format>
        <dc:type
           rdf:resource="http://purl.org/dc/dcmitype/StillImage" />
        <dc:title></dc:title>
      </cc:Work>
    </rdf:RDF>
  </metadata>
  <g
     inkscape:label="Layer 1"
     inkscape:groupmode="layer"
     id="layer1"
     transform="translate(-53.681,-38.134741)">
    <g
       id="flowRoot7719"
       style="font-style:normal;font-weight:normal;font-size:40px;line-height:1.25;font-family:sans-serif;letter-spacing:0px;word-spacing:0px;display:inline;fill:#000000;fill-opacity:1;stroke:#ffffff;stroke-width:3.20001411;stroke-miterlimit:4;stroke-dasharray:none;stroke-opacity:1;enable-background:new"
       transform="matrix(0.19252721,0,0,0.19252721,-39.292169,35.822119)"
       aria-label="BEARJAM">
      <path
         inkscape:connector-curvature="0"
         id="path16190"
         style="font-style:normal;font-variant:normal;font-weight:normal;font-stretch:normal;font-size:96px;font-family:Modak;-inkscape-font-specification:Modak;text-align:center;letter-spacing:3.84001708px;text-anchor:middle;fill:#000000;fill-opacity:1;stroke:#ffffff;stroke-width:3.20001411;stroke-miterlimit:4;stroke-dasharray:none;stroke-opacity:1"
         d="m 509.96237,57.018179 q 0.1875,0.140625 1.07813,0.140625 0.89062,0 1.35937,-0.609375 0.46875,-0.609375 0.46875,-2.15625 v -0.890625 q 0,-1.734375 -0.42187,-2.484375 -0.375,-0.75 -1.3125,-0.75 -0.89063,0 -1.21875,0.1875 0.0469,0.234375 0.0469,0.796875 z m 0,-17.671875 q 0.1875,0.140625 1.07813,0.140625 0.89062,0 1.35937,-0.703125 0.46875,-0.703125 0.46875,-2.296875 v -0.28125 q 0,-1.6875 -0.42187,-2.390625 -0.375,-0.75 -1.3125,-0.75 -0.89063,0 -1.21875,0.1875 0.0469,0.234375 0.0469,0.796875 z M 484.50925,21.299429 q 0,-1.078125 1.78125,-2.4375 3.75,-2.859375 13.21875,-4.453125 4.92187,-0.796875 10.82812,-0.796875 14.0625,0 21.28125,5.4375 6.32813,4.78125 6.32813,12.5625 0,2.8125 -0.98438,5.53125 -0.98437,2.671875 -2.8125,4.03125 -2.48437,-1.265625 -4.78125,-1.265625 -1.07812,0 -1.64062,0.421875 -0.5625,0.421875 -0.5625,1.546875 6.89062,0.28125 10.73437,4.96875 3.42188,4.265625 3.42188,10.59375 0,9.796875 -8.20313,14.25 -7.6875,4.171875 -23.15625,4.171875 -10.82812,0 -15.89062,-0.65625 -5.0625,-0.703125 -7.3125,-3.234375 -2.25,-2.53125 -2.25,-7.6875 z" />
      <path
         inkscape:connector-curvature="0"
         id="path16192"
         style="font-style:normal;font-variant:normal;font-weight:normal;font-stretch:normal;font-size:96px;font-family:Modak;-inkscape-font-specification:Modak;text-align:center;letter-spacing:3.84001708px;text-anchor:middle;fill:#000000;fill-opacity:1;stroke:#ffffff;stroke-width:3.20001411;stroke-miterlimit:4;stroke-dasharray:none;stroke-opacity:1"
         d="m 568.50551,14.877554 h 27.04688 q 1.35937,2.25 2.01562,4.921875 0.65625,2.625 0.65625,4.734375 0,4.734375 -1.875,7.125 -1.82812,2.390625 -5.15625,2.390625 h -18.89062 q -1.73438,0 -1.73438,1.359375 v 0.375 q 0,0.28125 0.0937,0.375 h 22.40625 q 0.84375,1.453125 1.45313,3.65625 0.5625,2.390625 0.5625,4.265625 0,5.578125 -2.0625,8.71875 h -10.17188 q -7.125,0 -9.65625,0.5625 -2.53125,0.515625 -3.14062,0.890625 -0.60938,0.421875 -0.60938,1.078125 0,0.65625 0.65625,1.03125 2.4375,-0.796875 5.10938,-1.125 3.51562,-0.328125 7.64062,-0.328125 h 13.17188 q 2.85937,4.03125 2.85937,9.703125 0,3.1875 -0.79687,6.09375 -0.79688,2.90625 -2.39063,4.6875 h -35.10937 q -5.8125,0 -9.32813,-2.8125 -3.84375,-3 -3.84375,-8.8125 V 19.190054 q 0,-2.25 5.15625,-3.28125 5.15625,-1.03125 15.9375,-1.03125 z" />
      <path
         inkscape:connector-curvature="0"
         id="path16194"
         style="font-style:normal;font-variant:normal;font-weight:normal;font-stretch:normal;font-size:96px;font-family:Modak;-inkscape-font-specification:Modak;text-align:center;letter-spacing:3.84001708px;text-anchor:middle;fill:#000000;fill-opacity:1;stroke:#ffffff;stroke-width:3.20001411;stroke-miterlimit:4;stroke-dasharray:none;stroke-opacity:1"
         d="m 634.36115,44.549429 q 0.375,0.375 1.17188,0.375 0.79687,0 1.35937,-0.328125 -1.21875,-7.125 -1.64062,-8.4375 -0.51563,-1.359375 -1.54688,-1.359375 -0.46875,0 -1.125,0.28125 z m -9.28125,14.0625 q -0.46875,0.65625 -0.46875,1.21875 0,1.359375 2.53125,2.296875 2.57813,0.890625 6.23438,1.125 0.60937,6.75 1.3125,7.6875 -0.89063,1.734375 -4.92188,3.515625 -4.03125,1.734375 -9.09375,1.734375 -6.70312,0 -11.48437,-2.859375 -4.78125,-2.90625 -4.78125,-7.453125 0,-1.21875 0.23437,-2.15625 l 9.98438,-44.625 q 3.75,-2.390625 8.95312,-3.75 5.20313,-1.359375 10.82813,-1.359375 8.0625,0 13.78125,2.71875 6.51562,3.09375 7.92187,8.953125 l 10.6875,44.203125 q -4.875,6.328125 -15.89062,6.328125 -5.34375,0 -9.04688,-1.921875 -3.70312,-1.921875 -4.3125,-5.484375 l -1.03125,-5.71875 q 2.8125,-0.04687 5.4375,-1.078125 2.625,-1.03125 2.625,-2.15625 0,-0.75 -0.60937,-1.21875 -1.78125,1.265625 -4.35938,1.921875 -2.57812,0.65625 -4.78125,0.65625 -6.32812,0 -9.75,-2.578125 z" />
      <path
         inkscape:connector-curvature="0"
         id="path16196"
         style="font-style:normal;font-variant:normal;font-weight:normal;font-stretch:normal;font-size:96px;font-family:Modak;-inkscape-font-specification:Modak;text-align:center;letter-spacing:3.84001708px;text-anchor:middle;fill:#000000;fill-opacity:1;stroke:#ffffff;stroke-width:3.20001411;stroke-miterlimit:4;stroke-dasharray:none;stroke-opacity:1"
         d="m 698.29492,42.018179 q 0.1875,0.140625 1.07813,0.140625 0.89062,0 1.35937,-0.703125 0.46875,-0.703125 0.46875,-2.296875 v -1.6875 q 0,-1.6875 -0.42187,-2.390625 -0.375,-0.75 -1.3125,-0.75 -0.89063,0 -1.21875,0.1875 0.0469,0.234375 0.0469,0.796875 z m 24.1875,10.6875 8.10938,8.296875 q -0.84375,7.3125 -4.64063,11.25 -3.75,3.9375 -10.40625,3.9375 -5.01562,0 -8.71875,-2.390625 -4.73437,-3 -7.07812,-9.5625 l -1.6875,-4.59375 q -1.96875,-0.04687 -4.96875,-0.515625 -0.375,0.375 -0.375,1.03125 0,1.265625 3.79687,1.5 l 2.67188,6.75 v 3.984375 q -5.39063,3.796875 -13.82813,3.796875 -6.04687,0 -9.65625,-2.484375 -3.60937,-2.484375 -3.60937,-7.21875 v -44.53125 q 0,-2.0625 3.79687,-3.984375 3.79688,-1.96875 9.9375,-3.140625 6.14063,-1.21875 12.28125,-1.21875 14.0625,0 21.98438,5.765625 8.34375,6.046875 8.34375,17.015625 0,6.28125 -3.5625,10.78125 -3.51563,4.453125 -8.90625,6.1875 0,1.5 1.78125,1.5 1.82812,0 4.73437,-2.15625 z" />
      <path
         inkscape:connector-curvature="0"
         id="path16198"
         style="font-style:normal;font-variant:normal;font-weight:normal;font-stretch:normal;font-size:96px;font-family:Modak;-inkscape-font-specification:Modak;text-align:center;letter-spacing:3.84001708px;text-anchor:middle;fill:#000000;fill-opacity:1;stroke:#ffffff;stroke-width:3.20001411;stroke-miterlimit:4;stroke-dasharray:none;stroke-opacity:1"
         d="m 780.83806,53.924429 q 0,9.890625 -6.28125,16.078125 -6.65625,6.65625 -18.375,6.65625 -6.70313,0 -12.70313,-3.46875 -4.59375,-2.625 -6.98437,-6.046875 -0.46875,-2.859375 -0.46875,-5.203125 0,-7.640625 4.64062,-11.71875 3.75,-3.28125 9.23438,-3.28125 4.17187,0 7.59375,2.203125 3.46875,2.34375 5.10937,6.46875 1.5,0 1.5,-1.546875 0,-0.796875 -0.70312,-2.109375 -0.65625,-1.3125 -1.92188,-2.625 -3.32812,-3.421875 -8.01562,-4.21875 v -27 q 2.34375,-1.734375 5.90625,-2.90625 3.5625,-1.171875 8.10937,-1.171875 4.54688,0 8.20313,1.59375 5.15625,2.34375 5.15625,7.03125 z" />
      <path
         inkscape:connector-curvature="0"
         id="path16200"
         style="font-style:normal;font-variant:normal;font-weight:normal;font-stretch:normal;font-size:96px;font-family:Modak;-inkscape-font-specification:Modak;text-align:center;letter-spacing:3.84001708px;text-anchor:middle;fill:#000000;fill-opacity:1;stroke:#ffffff;stroke-width:3.20001411;stroke-miterlimit:4;stroke-dasharray:none;stroke-opacity:1"
         d="m 815.56869,44.549429 q 0.375,0.375 1.17188,0.375 0.79687,0 1.35937,-0.328125 -1.21875,-7.125 -1.64062,-8.4375 -0.51563,-1.359375 -1.54688,-1.359375 -0.46875,0 -1.125,0.28125 z m -9.28125,14.0625 q -0.46875,0.65625 -0.46875,1.21875 0,1.359375 2.53125,2.296875 2.57813,0.890625 6.23438,1.125 0.60937,6.75 1.3125,7.6875 -0.89063,1.734375 -4.92188,3.515625 -4.03125,1.734375 -9.09375,1.734375 -6.70312,0 -11.48437,-2.859375 -4.78125,-2.90625 -4.78125,-7.453125 0,-1.21875 0.23437,-2.15625 l 9.98438,-44.625 q 3.75,-2.390625 8.95312,-3.75 5.20313,-1.359375 10.82813,-1.359375 8.0625,0 13.78125,2.71875 6.51562,3.09375 7.92187,8.953125 l 10.6875,44.203125 q -4.875,6.328125 -15.89062,6.328125 -5.34375,0 -9.04688,-1.921875 -3.70312,-1.921875 -4.3125,-5.484375 l -1.03125,-5.71875 q 2.8125,-0.04687 5.4375,-1.078125 2.625,-1.03125 2.625,-2.15625 0,-0.75 -0.60937,-1.21875 -1.78125,1.265625 -4.35938,1.921875 -2.57812,0.65625 -4.78125,0.65625 -6.32812,0 -9.75,-2.578125 z" />
      <path
         inkscape:connector-curvature="0"
         id="path16202"
         style="font-style:normal;font-variant:normal;font-weight:normal;font-stretch:normal;font-size:96px;font-family:Modak;-inkscape-font-specification:Modak;text-align:center;letter-spacing:3.84001708px;text-anchor:middle;fill:#000000;fill-opacity:1;stroke:#ffffff;stroke-width:3.20001411;stroke-miterlimit:4;stroke-dasharray:none;stroke-opacity:1"
         d="m 905.98685,76.190054 q -6.42188,0 -10.07813,-2.109375 -3.9375,-2.203125 -4.26562,-6.234375 l -0.42188,-4.40625 q 4.3125,-1.03125 7.26563,-5.34375 0.79687,-1.21875 0.79687,-2.109375 0,-1.21875 -1.21875,-1.21875 h -0.14062 q -0.0469,0.04687 -0.1875,0.04687 -3.28125,6.890625 -10.64063,6.890625 -3.75,0 -6.42187,-1.640625 -2.625,-1.640625 -4.82813,-5.671875 h -0.28125 q -1.26562,0 -1.26562,1.078125 0,0.75 0.5625,1.6875 1.875,3.140625 4.6875,4.921875 2.20312,1.5 4.64062,1.78125 l -0.375,8.859375 q -2.8125,1.828125 -5.95312,2.625 -3.09375,0.84375 -8.85938,0.84375 -5.71875,0 -10.21875,-2.25 -5.53125,-2.765625 -5.53125,-7.6875 0,-6.140625 2.4375,-30.328125 1.3125,-12.609375 2.10938,-17.625 4.82812,-4.3125 14.25,-4.3125 6.84375,0 11.34375,2.53125 l 2.57812,8.625 -1.64062,6.890625 q -0.1875,0.703125 -0.1875,1.359375 0,1.640625 1.875,1.6875 l 4.45312,-18.515625 q 1.92188,-1.03125 5.01563,-1.78125 3.09375,-0.796875 6.75,-0.796875 6.84375,0 10.125,2.34375 3.32812,2.296875 3.9375,7.78125 0.14062,1.03125 0.42187,3.421875 4.26563,36.65625 4.26563,43.171875 -5.20313,5.484375 -15,5.484375 z" />
    </g>
  </g>
</svg>
